<svg width="36" height="36" viewBox="0 0 36 36" fill="none" xmlns="http://www.w3.org/2000/svg">
<path d="M7.19807 1H29.8019C33.225 1 36 3.76479 36 7.17532V28.8247C36 32.2352 33.225 35 29.8019 35H7.19807C3.77497 35 1 32.2352 1 28.8247V7.17532C1.00072 3.76479 3.7757 1 7.19807 1Z" fill="#E41C13"/>
<path d="M20.6531 23.319C20.6531 23.4604 20.5385 23.5756 20.3964 23.5756C20.255 23.5756 20.1398 23.4611 20.1398 23.319C20.1398 23.1776 20.2543 23.0623 20.3964 23.0623C20.5385 23.0623 20.6531 23.1769 20.6531 23.319ZM20.1398 23.9334C20.0641 23.9334 19.9977 23.9624 19.9404 24.0034C19.9517 23.9701 19.9616 23.9362 19.9616 23.8994C19.9616 23.7206 19.816 23.5749 19.6371 23.5749C19.4582 23.5749 19.3126 23.7206 19.3126 23.8994C19.3126 24.079 19.4582 24.2239 19.6371 24.2239C19.7042 24.2239 19.7629 24.1992 19.8145 24.1639C19.8011 24.2013 19.7905 24.2402 19.7905 24.2819C19.7905 24.4749 19.9468 24.6312 20.1398 24.6312C20.3328 24.6312 20.489 24.4742 20.489 24.2819C20.489 24.0896 20.3328 23.9334 20.1398 23.9334ZM19.5332 24.709C19.5204 24.4997 19.3507 24.3321 19.1379 24.3321C19.1005 24.3321 19.0672 24.3441 19.0326 24.3533C19.0941 24.2862 19.1337 24.1985 19.1337 24.1002C19.1337 23.8917 18.9647 23.7227 18.7561 23.7227C18.5476 23.7227 18.3786 23.8917 18.3786 24.1002C18.3786 24.3088 18.5476 24.4778 18.7561 24.4778C18.7887 24.4778 18.8177 24.4672 18.8481 24.4594C18.7802 24.5308 18.7371 24.6262 18.7371 24.733C18.7371 24.9154 18.8615 25.0625 19.0276 25.1112C19.0276 25.1169 19.0248 25.1211 19.0248 25.1261C19.0248 25.3644 19.2178 25.5581 19.4568 25.5581C19.6951 25.5581 19.8888 25.3644 19.8888 25.1261C19.8888 24.914 19.7339 24.7464 19.5332 24.709ZM18.5341 25.0978C18.5532 25.049 18.566 24.9967 18.566 24.9409C18.566 24.7118 18.3899 24.5301 18.1665 24.5075C18.2216 24.4375 18.2598 24.3526 18.2598 24.2565C18.2598 24.0592 18.1184 23.9023 17.9339 23.8605C18.0187 23.7898 18.0753 23.688 18.0753 23.5693C18.0753 23.4222 17.9897 23.2978 17.8674 23.2334C18.0562 23.2249 18.2068 23.0722 18.2068 22.882C18.2068 22.6862 18.0484 22.5278 17.8526 22.5278C17.6567 22.5278 17.4984 22.6862 17.4984 22.882C17.4984 23.015 17.5747 23.1267 17.6829 23.1875C17.475 23.1924 17.3075 23.36 17.3075 23.5693C17.3075 23.7481 17.4326 23.8917 17.5988 23.9348C17.5012 24.0104 17.434 24.1236 17.434 24.2565C17.434 24.465 17.591 24.6305 17.7918 24.6588C17.7267 24.7358 17.6829 24.832 17.6829 24.9409C17.6829 25.153 17.8349 25.3212 18.0336 25.3644C18.0011 25.4308 17.9784 25.5022 17.9784 25.5814C17.9784 25.855 18.2004 26.077 18.474 26.077C18.7477 26.077 18.9697 25.855 18.9697 25.5814C18.9697 25.3297 18.7781 25.1296 18.5341 25.0978ZM13.4635 22.0548C13.4635 22.2302 13.3623 22.3779 13.2195 22.4585C13.2457 22.4536 13.2697 22.443 13.2966 22.443C13.5568 22.443 13.7675 22.6537 13.7675 22.9131C13.7675 22.9881 13.7463 23.0567 13.7151 23.1196C13.7972 23.0489 13.9011 23.0015 14.0177 23.0015C14.273 23.0015 14.4787 23.2059 14.4844 23.4597C14.5353 23.2652 14.7 23.121 14.9079 23.1118C14.8647 23.0468 14.8329 22.9725 14.8329 22.8884C14.8329 22.66 15.0182 22.4755 15.2458 22.4755C15.4742 22.4755 15.6587 22.6607 15.6587 22.8884C15.6587 23.1012 15.4961 23.2695 15.2897 23.2928C15.3512 23.372 15.3943 23.4667 15.3943 23.5749C15.3943 23.6972 15.3448 23.8061 15.2685 23.8888C15.3533 23.9708 15.4035 24.0825 15.4169 24.2063C15.4304 24.0875 15.4827 23.9822 15.5661 23.9058C15.4714 23.8245 15.4077 23.7085 15.4077 23.5735C15.4077 23.343 15.5866 23.1592 15.8121 23.1387C15.7549 23.0694 15.716 22.9838 15.716 22.887C15.716 22.7413 15.7973 22.6197 15.9132 22.5497C15.7422 22.5222 15.6092 22.3808 15.6092 22.2012C15.6092 22.0025 15.7704 21.842 15.9691 21.842C16.1678 21.842 16.329 22.0032 16.329 22.2012C16.329 22.327 16.2604 22.4324 16.1628 22.4967C16.3601 22.5208 16.5149 22.6827 16.5149 22.887C16.5149 23.0878 16.365 23.2462 16.172 23.2751C16.2448 23.3536 16.2915 23.4575 16.2915 23.5735C16.2915 23.6909 16.2434 23.7969 16.1685 23.8761C16.2887 23.9638 16.3721 24.0995 16.3721 24.26C16.3721 24.3477 16.3424 24.4254 16.3014 24.4962C16.4605 24.5859 16.5729 24.7507 16.5729 24.9458C16.5729 25.0017 16.5573 25.0533 16.5411 25.1042C16.5955 25.1296 16.645 25.1629 16.6881 25.2039C16.6386 25.1282 16.6026 25.0427 16.6026 24.9451C16.6026 24.8419 16.6422 24.7514 16.6973 24.6729C16.5333 24.6064 16.4166 24.4467 16.4166 24.2586C16.4166 24.125 16.4782 24.0083 16.5708 23.927C16.4456 23.8556 16.3573 23.7269 16.3573 23.5728C16.3573 23.3564 16.5248 23.1853 16.7362 23.1663C16.657 23.097 16.6047 22.9987 16.6047 22.8856C16.6047 22.7307 16.698 22.5992 16.831 22.5406C16.8112 22.5441 16.7935 22.5526 16.773 22.5526C16.5785 22.5526 16.4202 22.3942 16.4202 22.1998C16.4202 22.0053 16.5778 21.847 16.773 21.847C16.9674 21.847 17.1258 22.0053 17.1258 22.1998C17.1258 22.344 17.0388 22.4677 16.9144 22.5222C16.937 22.5179 16.9582 22.5087 16.9823 22.5087C17.1901 22.5087 17.3591 22.6777 17.3591 22.8856C17.3591 23.0786 17.2113 23.2327 17.024 23.2539C17.1187 23.3296 17.1838 23.4413 17.1838 23.5721C17.1838 23.6852 17.1378 23.7877 17.0643 23.862C17.2106 23.9362 17.3138 24.084 17.3138 24.2586C17.3138 24.3463 17.282 24.424 17.2382 24.4933C17.4291 24.5577 17.5691 24.733 17.5691 24.9451C17.5691 25.0045 17.5549 25.0596 17.5351 25.1127C17.7642 25.1798 17.9346 25.382 17.9346 25.633C17.9346 25.937 17.6878 26.1838 17.3838 26.1838C17.1215 26.1838 16.9123 25.9957 16.8571 25.7497C16.802 26.0176 16.5757 26.2227 16.2915 26.2227C16.0603 26.2227 15.8645 26.0862 15.7683 25.8925C15.6693 26.1103 15.453 26.263 15.1992 26.263C14.9666 26.263 14.7714 26.1301 14.6633 25.942C14.5537 26.1407 14.35 26.2807 14.1068 26.2807C13.8714 26.2807 13.6748 26.1484 13.5617 25.9597C13.4493 26.1499 13.2506 26.2828 13.0138 26.2828C12.7373 26.2828 12.5054 26.1074 12.4128 25.8628C12.2955 25.9795 12.1343 26.0516 11.9554 26.0516C11.5969 26.0516 11.3064 25.761 11.3064 25.4025C11.3064 25.375 11.3191 25.3509 11.3226 25.3241C11.2562 25.3474 11.1876 25.3665 11.1133 25.3665C10.7577 25.3665 10.4693 25.078 10.4693 24.7224C10.4693 24.5831 10.523 24.4608 10.5986 24.3555C10.2805 24.3265 10.0281 24.067 10.0281 23.7404C10.0281 23.4922 10.1758 23.2815 10.3858 23.1804C10.2006 23.0765 10.0698 22.8856 10.0698 22.6579C10.0698 22.3299 10.3307 22.0661 10.6559 22.0541C10.5513 21.9481 10.4862 21.8024 10.4862 21.6412C10.4862 21.3153 10.7506 21.0509 11.0766 21.0509C11.0865 21.0509 11.095 21.0558 11.1041 21.0565C10.9903 20.9505 10.9168 20.802 10.9168 20.6337C10.9168 20.312 11.1777 20.0519 11.4987 20.0519C11.5227 20.0519 11.5425 20.0625 11.5651 20.0653C11.4357 19.96 11.3474 19.8058 11.3474 19.6262C11.3474 19.3095 11.604 19.0522 11.9208 19.0522C11.9582 19.0522 11.9907 19.0663 12.0268 19.0734C11.8805 18.9708 11.7786 18.8104 11.7786 18.618C11.7786 18.3055 12.0317 18.0531 12.3435 18.0531C12.3952 18.0531 12.4411 18.0694 12.4892 18.0821C12.3252 17.9853 12.2099 17.8149 12.2099 17.6106C12.2099 17.303 12.4595 17.0534 12.7663 17.0534C12.8314 17.0534 12.8922 17.0697 12.9502 17.0909C12.7685 17.0018 12.6412 16.8187 12.6412 16.6031C12.6412 16.2998 12.8865 16.0544 13.1898 16.0544C13.351 16.0544 13.4931 16.1272 13.5935 16.2382C13.6565 16.2107 13.725 16.1937 13.7979 16.1937C13.9612 16.1937 14.1005 16.2757 14.1931 16.3952C14.2574 16.362 14.3267 16.3393 14.4038 16.3393C14.5706 16.3393 14.7106 16.432 14.7933 16.5635C14.8563 16.5267 14.9256 16.5005 15.0033 16.5005C15.202 16.5005 15.3611 16.6384 15.4091 16.8222C15.4516 16.806 15.4968 16.7947 15.5456 16.7947C15.7598 16.7947 15.9338 16.9679 15.9338 17.1821C15.9338 17.2959 15.8828 17.3956 15.8051 17.467C15.8461 17.4501 15.8906 17.4402 15.9373 17.4402C16.1268 17.4402 16.2795 17.5936 16.2795 17.7831C16.2795 17.8764 16.242 17.9598 16.1812 18.0213C16.2349 17.9725 16.3049 17.9414 16.3834 17.9414C16.5524 17.9414 16.6888 18.0779 16.6888 18.2469C16.6888 18.4151 16.5517 18.5523 16.3834 18.5523C16.2151 18.5523 16.078 18.4158 16.078 18.2469C16.078 18.1641 16.1119 18.0892 16.1649 18.0341C16.1041 18.0892 16.025 18.1253 15.9366 18.1253C15.7478 18.1253 15.5944 17.9718 15.5944 17.7831C15.5944 17.6883 15.6333 17.6028 15.6955 17.5399C15.6495 17.5596 15.5986 17.5703 15.5449 17.5703C15.3766 17.5703 15.2373 17.4621 15.1836 17.3122C15.1285 17.3384 15.0684 17.3553 15.0033 17.3553C14.864 17.3553 14.7467 17.2846 14.6689 17.1821C14.5925 17.2358 14.5049 17.2747 14.4038 17.2747C14.2694 17.2747 14.15 17.216 14.0644 17.1248C13.9859 17.175 13.8976 17.2111 13.7979 17.2111C13.6642 17.2111 13.5455 17.1574 13.4543 17.0732C13.3744 17.1185 13.2874 17.151 13.1898 17.151C13.1255 17.151 13.0661 17.1347 13.0095 17.1142C13.0619 17.1397 13.1114 17.1708 13.1531 17.2111C13.2266 17.1715 13.3065 17.1425 13.3956 17.1425C13.5476 17.1425 13.6805 17.2111 13.7752 17.3157C13.8481 17.2698 13.9301 17.2358 14.0227 17.2358C14.1782 17.2358 14.309 17.3157 14.396 17.431C14.4667 17.3801 14.5494 17.3433 14.6435 17.3433C14.8287 17.3433 14.9835 17.4607 15.045 17.624C15.0938 17.6021 15.1476 17.5879 15.2048 17.5879C15.4212 17.5879 15.5958 17.7633 15.5958 17.9789C15.5958 18.0588 15.5661 18.1288 15.5251 18.191C15.5555 18.1818 15.5859 18.1719 15.6198 18.1719C15.8114 18.1719 15.967 18.3275 15.967 18.5191C15.967 18.5742 15.9507 18.6251 15.9281 18.6718C15.9748 18.6435 16.0264 18.623 16.0851 18.623C16.2562 18.623 16.3947 18.7616 16.3947 18.9327C16.3947 19.1031 16.2562 19.2416 16.0851 19.2416C15.914 19.2416 15.7754 19.1031 15.7754 18.9327C15.7754 18.8874 15.786 18.8457 15.803 18.8068C15.7492 18.8422 15.6884 18.8669 15.6191 18.8669C15.4275 18.8669 15.272 18.7114 15.272 18.5198C15.272 18.4554 15.2939 18.3982 15.325 18.3466C15.2861 18.3593 15.2472 18.3706 15.2048 18.3706C15.0486 18.3706 14.9164 18.2773 14.8534 18.1458C14.7905 18.1818 14.7212 18.208 14.6435 18.208C14.5176 18.208 14.4066 18.1521 14.3274 18.0659C14.2447 18.1373 14.1401 18.1839 14.0227 18.1839C13.9011 18.1839 13.7922 18.1344 13.7088 18.0588C13.6211 18.1274 13.5158 18.1748 13.3963 18.1748C13.327 18.1748 13.2612 18.1599 13.2004 18.1352C13.2577 18.1599 13.3093 18.196 13.3539 18.2384C13.4345 18.1762 13.5313 18.133 13.6416 18.133C13.7851 18.133 13.9103 18.1995 13.998 18.2992C14.075 18.2313 14.1733 18.1868 14.2836 18.1868C14.4575 18.1868 14.6046 18.29 14.6746 18.4378C14.7311 18.4059 14.7933 18.3826 14.8633 18.3826C15.0811 18.3826 15.2578 18.5587 15.2578 18.7764C15.2578 18.8266 15.2465 18.874 15.2296 18.9178C15.2536 18.9122 15.2762 18.903 15.3017 18.903C15.4961 18.903 15.6538 19.0606 15.6538 19.2551C15.6538 19.289 15.6432 19.3194 15.6347 19.3505C15.6799 19.3251 15.7294 19.306 15.7853 19.306C15.9571 19.306 16.0964 19.4453 16.0964 19.6178C16.0964 19.7896 15.9571 19.9288 15.7853 19.9288C15.6135 19.9288 15.4742 19.7896 15.4742 19.6178C15.4742 19.5923 15.4827 19.5697 15.4883 19.5464C15.4332 19.5817 15.3717 19.6079 15.3017 19.6079C15.1073 19.6079 14.9496 19.4502 14.9496 19.2558C14.9496 19.2183 14.9602 19.1837 14.9708 19.1497C14.9362 19.1596 14.9015 19.1709 14.8633 19.1709C14.7191 19.1709 14.5982 19.0896 14.5296 18.9737C14.4582 19.0239 14.3762 19.0599 14.2829 19.0599C14.1683 19.0599 14.0651 19.0133 13.9873 18.9412C13.9456 18.9857 13.8954 19.0218 13.8389 19.0472C13.8664 19.0415 13.8926 19.0302 13.9216 19.0302C14.0842 19.0302 14.2207 19.1229 14.297 19.2544C14.3621 19.2091 14.4363 19.1766 14.5211 19.1766C14.7403 19.1766 14.9185 19.3548 14.9185 19.5739C14.9185 19.6022 14.9079 19.627 14.9022 19.6538C14.9284 19.6475 14.9538 19.6376 14.9821 19.6376C15.1772 19.6376 15.3363 19.7966 15.3363 19.9918C15.3363 20.0094 15.3285 20.0243 15.3264 20.0406C15.3731 20.0123 15.4254 19.9918 15.4841 19.9918C15.6559 19.9918 15.7952 20.1311 15.7952 20.3029C15.7952 20.4747 15.6559 20.6139 15.4841 20.6139C15.3123 20.6139 15.173 20.4747 15.173 20.3029C15.173 20.2944 15.1772 20.2873 15.178 20.2788C15.1214 20.3177 15.0564 20.346 14.9828 20.346C14.787 20.346 14.6286 20.1869 14.6286 19.9918C14.6286 19.9762 14.6357 19.9628 14.6378 19.9479C14.6003 19.9592 14.5629 19.9713 14.5218 19.9713C14.3889 19.9713 14.2772 19.902 14.2058 19.8023C14.1288 19.868 14.0319 19.9119 13.9223 19.9119C13.8134 19.9119 13.7173 19.868 13.6402 19.803C13.6211 19.8277 13.6034 19.8525 13.5801 19.8737C13.7236 19.8801 13.8438 19.955 13.9216 20.0653C13.9923 20.0059 14.08 19.9656 14.1797 19.9656C14.4031 19.9656 14.5841 20.1473 14.5841 20.3707C14.5841 20.3771 14.5805 20.3828 14.5805 20.3891C14.6081 20.382 14.6343 20.3721 14.664 20.3721C14.8605 20.3721 15.0196 20.5319 15.0196 20.7278C15.0196 20.9243 14.8605 21.0834 14.664 21.0834C14.4752 21.0834 14.3239 20.9349 14.3126 20.7483C14.2702 20.7631 14.227 20.7751 14.1797 20.7751C14.058 20.7751 13.9527 20.7193 13.8792 20.6352C13.7979 20.7165 13.6855 20.7674 13.561 20.7674C13.4578 20.7674 13.3673 20.7264 13.2909 20.6677C13.2803 20.6854 13.2697 20.7023 13.257 20.7179C13.3772 20.7334 13.4797 20.7921 13.5518 20.8819C13.6268 20.8055 13.73 20.7575 13.8452 20.7575C14.0729 20.7575 14.2574 20.942 14.2574 21.1697C14.2574 21.3973 14.0729 21.5818 13.8452 21.5818C13.7279 21.5818 13.6239 21.5324 13.5483 21.4532C13.4642 21.555 13.3418 21.6243 13.199 21.6243M13.2641 24.3936C13.3595 24.4587 13.4394 24.5428 13.4832 24.6517C13.4974 24.6284 13.5115 24.6057 13.5285 24.5845C13.4585 24.499 13.4125 24.3943 13.4083 24.2763C13.3673 24.3243 13.3192 24.3625 13.2641 24.3936ZM14.3698 24.5258C14.4257 24.5782 14.4709 24.6397 14.5028 24.7104C14.5155 24.6828 14.536 24.6609 14.553 24.6361C14.4907 24.5775 14.449 24.5018 14.4222 24.4184C14.4087 24.4566 14.3903 24.4912 14.3698 24.5258ZM15.4169 24.3152C15.4091 24.3859 15.3886 24.4509 15.3554 24.5103C15.4537 24.5874 15.5209 24.6941 15.5513 24.8193C15.5668 24.7585 15.5916 24.7047 15.6255 24.6552C15.5117 24.5782 15.4339 24.458 15.4169 24.3152ZM14.2617 23.8605C14.3373 23.9242 14.3918 24.0055 14.4222 24.1009C14.4519 24.0097 14.5042 23.9327 14.5749 23.8719C14.5084 23.7934 14.4653 23.6958 14.4625 23.5855C14.4321 23.7022 14.3614 23.7976 14.2617 23.8605ZM13.2966 23.384C13.1234 23.384 12.9784 23.2857 12.8964 23.1465C12.8985 23.1663 12.9077 23.1832 12.9077 23.203C12.9077 23.2928 12.8795 23.3734 12.8399 23.4484C12.8936 23.43 12.9495 23.4137 13.0103 23.4137C13.2945 23.4137 13.5235 23.64 13.5334 23.9221C13.5759 23.8719 13.6268 23.8309 13.6847 23.7997C13.6006 23.7149 13.5483 23.5982 13.5483 23.4696C13.5483 23.3953 13.5695 23.3275 13.5999 23.2652C13.5179 23.3366 13.414 23.384 13.2966 23.384ZM12.994 22.5243C12.8759 22.5243 12.7713 22.4769 12.6886 22.4048C12.6497 22.5278 12.5677 22.6268 12.4581 22.6911C12.6207 22.7159 12.755 22.8106 12.8328 22.9485C12.8321 22.9365 12.8257 22.9259 12.8257 22.9139C12.8257 22.7378 12.9268 22.59 13.0704 22.5094C13.0449 22.513 13.0216 22.5243 12.994 22.5243ZM13.6423 19.0917C13.5342 19.0917 13.4394 19.0493 13.3595 18.9892C13.3397 19.0083 13.3129 19.0196 13.2902 19.0359C13.4118 19.0437 13.5221 19.091 13.6027 19.1716C13.6416 19.1299 13.6876 19.096 13.7406 19.0719C13.7074 19.079 13.677 19.0917 13.6423 19.0917ZM13.1934 18.1323C13.1524 18.1147 13.1184 18.0857 13.0838 18.0581C13.064 18.0715 13.0456 18.0864 13.0244 18.0984C13.0831 18.1012 13.1411 18.1104 13.1934 18.1323ZM13.6155 16.135C13.6954 16.135 13.7696 16.1159 13.8375 16.0848C13.9294 16.1845 14.058 16.2488 14.2037 16.2488C14.2878 16.2488 14.3628 16.2234 14.4328 16.1866C14.5176 16.2934 14.6427 16.3662 14.7898 16.3662C14.8732 16.3662 14.9475 16.3379 15.0153 16.299C15.0896 16.4185 15.2168 16.5027 15.3681 16.5027C15.4233 16.5027 15.4756 16.4906 15.5237 16.4708C15.564 16.6405 15.7096 16.7692 15.8913 16.7692C16.0907 16.7692 16.2484 16.6158 16.2689 16.4221C16.3155 16.55 16.435 16.6419 16.5793 16.6419C16.7631 16.6419 16.9123 16.4935 16.9123 16.3089C16.9123 16.1251 16.7631 15.9759 16.5793 15.9759C16.4089 15.9759 16.2731 16.106 16.254 16.2708C16.2052 16.1145 16.0645 15.9986 15.892 15.9986C15.8524 15.9986 15.8164 16.0099 15.7803 16.0212C15.7513 15.8162 15.5824 15.655 15.3688 15.655C15.3073 15.655 15.2494 15.6698 15.1963 15.6938C15.1193 15.5454 14.9687 15.4407 14.7905 15.4407C14.729 15.4407 14.671 15.4542 14.618 15.4761C14.5282 15.3389 14.3812 15.2435 14.2051 15.2435C14.1471 15.2435 14.0941 15.2583 14.0418 15.2767C13.9435 15.1452 13.7936 15.054 13.6169 15.054C13.3185 15.054 13.0767 15.2951 13.0767 15.5934C13.0753 15.8932 13.3171 16.135 13.6155 16.135ZM14.0383 15.119C14.1019 15.119 14.1613 15.1035 14.2178 15.083C14.3083 15.2025 14.4448 15.2852 14.606 15.2852C14.6731 15.2852 14.7375 15.271 14.7955 15.247C14.8768 15.3714 15.0104 15.4591 15.1702 15.4591C15.2366 15.4591 15.2996 15.4429 15.3561 15.4174C15.4247 15.5553 15.5633 15.6521 15.7273 15.6521C15.7733 15.6521 15.8157 15.6394 15.8567 15.626C15.8758 15.819 16.0334 15.9717 16.2314 15.9717C16.4004 15.9717 16.539 15.8607 16.5892 15.7087C16.6408 15.8268 16.7581 15.9102 16.896 15.9102C17.0805 15.9102 17.2304 15.7603 17.2304 15.5751C17.2304 15.3898 17.0805 15.2399 16.896 15.2399C16.7546 15.2399 16.6344 15.3283 16.5856 15.4535C16.5305 15.3106 16.394 15.2074 16.2314 15.2074C16.2003 15.2074 16.1727 15.218 16.1437 15.2251C16.1388 14.9981 15.955 14.815 15.7273 14.815C15.6799 14.815 15.6361 14.8278 15.5937 14.8419C15.5286 14.6701 15.3646 14.5464 15.1702 14.5464C15.1256 14.5464 15.0846 14.5598 15.0436 14.5718C14.9623 14.4099 14.799 14.2954 14.6053 14.2954C14.5629 14.2954 14.5247 14.3095 14.4858 14.3194C14.3932 14.1639 14.2306 14.0557 14.0368 14.0557C13.7434 14.0557 13.5052 14.2933 13.5052 14.5874C13.5073 14.8808 13.7448 15.119 14.0383 15.119ZM14.461 14.1031C14.5091 14.1031 14.5515 14.0875 14.5954 14.0762C14.6802 14.2204 14.8301 14.3222 15.0097 14.3222C15.0599 14.3222 15.1058 14.3081 15.1511 14.294C15.2239 14.4453 15.3752 14.5506 15.5534 14.5506C15.6064 14.5506 15.6559 14.5372 15.7033 14.5209C15.7591 14.6828 15.909 14.8002 16.09 14.8002C16.1289 14.8002 16.1635 14.7882 16.1996 14.7783C16.1989 14.7839 16.1968 14.7882 16.1968 14.7931C16.1968 15.0024 16.3664 15.1721 16.5757 15.1721C16.7207 15.1721 16.843 15.0879 16.9059 14.9677C16.9561 15.0901 17.0763 15.1763 17.2163 15.1763C17.4022 15.1763 17.5528 15.0257 17.5528 14.8398C17.5528 14.6538 17.4022 14.5032 17.2163 14.5032C17.0918 14.5032 16.9879 14.5739 16.9299 14.6743C16.8797 14.5244 16.7426 14.4149 16.5757 14.4149C16.5474 14.4149 16.522 14.4248 16.4958 14.4311C16.4979 14.4163 16.505 14.4028 16.505 14.3873C16.505 14.1589 16.3198 13.9737 16.0914 13.9737C16.0532 13.9737 16.0186 13.9857 15.984 13.9956C15.9352 13.7998 15.7662 13.652 15.5555 13.652C15.5237 13.652 15.4954 13.664 15.465 13.6704C15.3964 13.4837 15.2211 13.3494 15.0111 13.3494C14.9842 13.3494 14.9609 13.3607 14.9347 13.3649C14.852 13.1861 14.6731 13.0595 14.4625 13.0595C14.174 13.0595 13.94 13.2935 13.94 13.5827C13.9386 13.8683 14.1726 14.1031 14.461 14.1031ZM14.8845 13.0871C14.9164 13.0871 14.9432 13.0744 14.9736 13.0694C15.0472 13.2391 15.2161 13.3586 15.4134 13.3586C15.4516 13.3586 15.4855 13.3451 15.5209 13.3367C15.5802 13.5127 15.7414 13.6414 15.9373 13.6414C15.9804 13.6414 16.0193 13.628 16.0589 13.6166C16.0971 13.804 16.254 13.9468 16.452 13.9468C16.4888 13.9468 16.522 13.9348 16.5566 13.9256C16.5524 13.9489 16.5425 13.9701 16.5425 13.9949C16.5425 14.202 16.7108 14.3703 16.9179 14.3703C17.0445 14.3703 17.1512 14.3032 17.2191 14.207C17.2636 14.3413 17.3867 14.4396 17.5358 14.4396C17.7225 14.4396 17.8738 14.2876 17.8738 14.1009C17.8738 13.9143 17.7225 13.7623 17.5358 13.7623C17.4277 13.7623 17.3351 13.8167 17.2735 13.8959C17.2297 13.7368 17.0904 13.6181 16.9179 13.6181C16.891 13.6181 16.867 13.628 16.8416 13.6336C16.8493 13.6018 16.8614 13.5707 16.8614 13.5367C16.8614 13.3105 16.6782 13.1274 16.452 13.1274C16.423 13.1274 16.3976 13.138 16.3707 13.1436C16.3438 12.9238 16.1635 12.752 15.9373 12.752C15.914 12.752 15.8942 12.7619 15.8715 12.7654C15.8199 12.5561 15.6396 12.397 15.4141 12.397C15.3971 12.397 15.383 12.4048 15.3667 12.4069C15.2974 12.2047 15.1115 12.0577 14.8853 12.0577C14.601 12.0577 14.3705 12.2875 14.3705 12.5724C14.3698 12.8566 14.6003 13.0871 14.8845 13.0871ZM15.3073 12.0704C15.33 12.0704 15.3491 12.0605 15.3703 12.0577C15.4297 12.2514 15.6029 12.3949 15.8157 12.3949C15.8447 12.3949 15.8694 12.3836 15.897 12.3787C15.9373 12.5795 16.1063 12.7336 16.3184 12.7336C16.3516 12.7336 16.3813 12.7216 16.4124 12.7145C16.4258 12.9266 16.5976 13.0949 16.8126 13.0949C16.8479 13.0949 16.879 13.0836 16.9116 13.0751C16.8981 13.114 16.8868 13.1543 16.8868 13.1974C16.8868 13.4031 17.0537 13.57 17.2594 13.57C17.4058 13.57 17.5288 13.4837 17.5903 13.3614C17.5882 13.3755 17.5818 13.3883 17.5818 13.4038C17.5818 13.5919 17.7338 13.7439 17.9219 13.7439C18.1099 13.7439 18.2619 13.5919 18.2619 13.4038C18.2619 13.2158 18.1099 13.0638 17.9219 13.0638C17.789 13.0638 17.6772 13.1422 17.6214 13.2532C17.6242 13.2341 17.6327 13.2172 17.6327 13.1981C17.6327 12.9923 17.4658 12.8255 17.2601 12.8255C17.2347 12.8255 17.212 12.8354 17.188 12.8403C17.2064 12.7937 17.2184 12.7435 17.2184 12.6912C17.2184 12.4677 17.0367 12.286 16.8133 12.286C16.7935 12.286 16.7765 12.2945 16.7574 12.2974C16.7574 12.2966 16.7581 12.2959 16.7581 12.2952C16.7581 12.0527 16.5623 11.8569 16.3198 11.8569C16.3049 11.8569 16.2929 11.864 16.2788 11.8654C16.2491 11.6328 16.0582 11.4496 15.8171 11.4496C15.8079 11.4496 15.8008 11.4546 15.7923 11.4546C15.7407 11.2305 15.5484 11.0594 15.3088 11.0594C15.0295 11.0594 14.8025 11.2863 14.8025 11.5656C14.8011 11.8442 15.0281 12.0704 15.3073 12.0704ZM15.7379 11.058C15.7577 11.058 15.7747 11.0488 15.7938 11.0466C15.8277 11.2715 16.0136 11.4468 16.2477 11.4468C16.2774 11.4468 16.3035 11.4348 16.3318 11.4298C16.3346 11.6681 16.5276 11.8611 16.7666 11.8611C16.8154 11.8611 16.8599 11.8484 16.9031 11.8336C16.8981 11.859 16.8875 11.8823 16.8875 11.9099C16.8875 12.134 17.0699 12.3164 17.294 12.3164C17.3612 12.3164 17.422 12.2959 17.4779 12.2677C17.4255 12.3327 17.3902 12.4112 17.3902 12.501C17.3902 12.7095 17.5592 12.8785 17.767 12.8785C17.9756 12.8785 18.1439 12.7095 18.1439 12.501C18.1439 12.2931 17.9749 12.1241 17.767 12.1241C17.7084 12.1241 17.6539 12.1404 17.6044 12.1644C17.6617 12.0944 17.7013 12.0082 17.7013 11.9106C17.7013 11.6865 17.5196 11.5041 17.2948 11.5041C17.2552 11.5041 17.2191 11.5161 17.183 11.5267C17.1915 11.4935 17.2035 11.461 17.2035 11.4256C17.2035 11.1845 17.0084 10.9894 16.7673 10.9894C16.7475 10.9894 16.7306 10.9979 16.7115 11.0007C16.7115 10.9929 16.7157 10.9873 16.7157 10.9802C16.7157 10.7221 16.5064 10.5129 16.2484 10.5129C16.2406 10.5129 16.2342 10.5171 16.2265 10.5171C16.2031 10.2647 15.9967 10.0639 15.7379 10.0639C15.4629 10.0639 15.2402 10.2866 15.2402 10.5616C15.2402 10.8367 15.4629 11.058 15.7379 11.058ZM16.3587 10.1544C16.3919 10.1544 16.4216 10.1417 16.4527 10.1353C16.4506 10.1516 16.4435 10.165 16.4435 10.182C16.4435 10.4386 16.6514 10.6465 16.908 10.6465C16.9589 10.6465 17.0049 10.6323 17.0508 10.6182C17.0388 10.6585 17.0254 10.6988 17.0254 10.7433C17.0254 10.9866 17.2219 11.1831 17.4651 11.1831C17.5634 11.1831 17.6504 11.1442 17.7239 11.0898C17.6582 11.1633 17.6157 11.2573 17.6157 11.3641C17.6157 11.5939 17.8024 11.7805 18.0322 11.7805C18.2619 11.7805 18.4486 11.5939 18.4486 11.3641C18.4486 11.1343 18.2619 10.9477 18.0322 10.9477C17.9395 10.9477 17.8589 10.9837 17.7897 11.0339C17.8589 10.9562 17.9049 10.8565 17.9049 10.7433C17.9049 10.5008 17.7084 10.3043 17.4651 10.3043C17.422 10.3043 17.3831 10.317 17.3435 10.3283C17.3591 10.2817 17.3732 10.2336 17.3732 10.182C17.3732 9.92533 17.1654 9.71676 16.9087 9.71676C16.8826 9.71676 16.8599 9.72736 16.8352 9.73161C16.8387 9.70898 16.8486 9.68848 16.8486 9.66515C16.8486 9.39507 16.6295 9.17589 16.3594 9.17589C16.0893 9.17589 15.8701 9.39507 15.8701 9.66515C15.8694 9.93523 16.0886 10.1544 16.3587 10.1544ZM17.2064 9.46223C17.2615 9.46223 17.3124 9.44809 17.3612 9.43113C17.3343 9.48981 17.3167 9.55415 17.3167 9.62343C17.3167 9.87867 17.5238 10.0858 17.7791 10.0858C18.0343 10.0858 18.2407 9.87937 18.2407 9.62343C18.2407 9.3682 18.0343 9.16105 17.7791 9.16105C17.7281 9.16105 17.6808 9.17519 17.6348 9.19003C17.6659 9.1264 17.6871 9.05712 17.6871 8.98147C17.6871 8.71634 17.4722 8.5014 17.2064 8.5014C16.9405 8.5014 16.7256 8.71634 16.7256 8.98147C16.7263 9.2466 16.9412 9.46223 17.2064 9.46223ZM18.211 9.03449C18.4719 9.03449 18.6833 8.82309 18.6833 8.56221C18.6833 8.30132 18.4719 8.08992 18.211 8.08992C17.9502 8.08992 17.7388 8.30132 17.7388 8.56221C17.7388 8.82309 17.9502 9.03449 18.211 9.03449ZM19.2942 8.90511C19.5501 8.90511 19.758 8.69795 19.758 8.44131C19.758 8.18537 19.5501 7.97751 19.2942 7.97751C19.0382 7.97751 18.8304 8.18466 18.8304 8.44131C18.8304 8.69795 19.0375 8.90511 19.2942 8.90511ZM20.3667 9.0861C20.6177 9.0861 20.822 8.88248 20.822 8.63079C20.822 8.37909 20.6184 8.17547 20.3667 8.17547C20.115 8.17547 19.9114 8.37909 19.9114 8.63079C19.9114 8.88248 20.115 9.0861 20.3667 9.0861ZM21.7291 9.97623C21.6867 9.9628 21.6429 9.94937 21.5955 9.94937C21.3466 9.94937 21.1444 10.1516 21.1444 10.4004C21.1444 10.4627 21.1572 10.522 21.1798 10.5758C21.148 10.5687 21.1176 10.5567 21.0836 10.5567C20.8341 10.5567 20.6319 10.7589 20.6319 11.0085C20.6319 11.1032 20.6672 11.1852 20.7167 11.258C20.6877 11.2524 20.6608 11.2404 20.6297 11.2404C20.383 11.2404 20.1836 11.4405 20.1836 11.6865C20.1836 11.7982 20.2289 11.8972 20.2967 11.9757C20.2585 11.9644 20.2204 11.9516 20.1779 11.9516C19.9418 11.9516 19.7502 12.1432 19.7502 12.3794C19.7502 12.6155 19.9418 12.8071 20.1779 12.8071C20.4141 12.8071 20.605 12.6155 20.605 12.3794C20.605 12.274 20.5626 12.1814 20.4996 12.1065C20.5414 12.1192 20.5831 12.1326 20.6297 12.1326C20.8758 12.1326 21.0759 11.9325 21.0759 11.6865C21.0759 11.5939 21.0412 11.5126 20.9931 11.4412C21.0228 11.4475 21.0511 11.4595 21.0836 11.4595C21.3332 11.4595 21.5354 11.2573 21.5354 11.0085C21.5354 10.9455 21.5227 10.8862 21.4994 10.8317C21.5312 10.8388 21.5616 10.8508 21.5955 10.8508C21.8444 10.8508 22.0466 10.6493 22.0466 10.4004C22.0466 10.3524 22.0331 10.3085 22.0197 10.2654C22.0593 10.2774 22.0989 10.2901 22.1427 10.2901C22.3852 10.2901 22.5811 10.0943 22.5811 9.8518C22.5811 9.60929 22.3852 9.41345 22.1427 9.41345C21.9009 9.41345 21.7044 9.60929 21.7044 9.8518C21.7037 9.89634 21.7171 9.93664 21.7291 9.97623ZM26.1791 19.8412C26.1791 20.0335 26.3353 20.1897 26.5276 20.1897C26.7199 20.1897 26.8762 20.0335 26.8762 19.8412C26.8762 19.6489 26.7199 19.4933 26.5276 19.4933C26.3353 19.4933 26.1791 19.6496 26.1791 19.8412ZM26.6174 20.848C26.6174 21.0332 26.7673 21.1831 26.9525 21.1831C27.1378 21.1831 27.2877 21.0332 27.2877 20.848C27.2877 20.6627 27.1378 20.5128 26.9525 20.5128C26.7673 20.5128 26.6174 20.6627 26.6174 20.848ZM27.0551 21.854C27.0551 22.0322 27.1993 22.1764 27.3775 22.1764C27.5549 22.1764 27.6991 22.0322 27.6991 21.854C27.6991 21.6766 27.5549 21.5324 27.3775 21.5324C27.1993 21.5324 27.0551 21.6766 27.0551 21.854ZM27.4722 22.8693C27.4722 23.0397 27.6108 23.1783 27.7812 23.1783C27.9515 23.1783 28.0901 23.0397 28.0901 22.8693C28.0901 22.6989 27.9515 22.5603 27.7812 22.5603C27.6108 22.5603 27.4722 22.6989 27.4722 22.8693ZM27.8151 23.6569C27.6518 23.6569 27.5196 23.7891 27.5196 23.9525C27.5196 24.1158 27.6518 24.248 27.8151 24.248C27.9784 24.248 28.1106 24.1158 28.1106 23.9525C28.1106 23.7891 27.9784 23.6569 27.8151 23.6569ZM27.3647 24.6552C27.2085 24.6552 27.0819 24.7818 27.0819 24.938C27.0819 25.0943 27.2085 25.2208 27.3647 25.2208C27.521 25.2208 27.6475 25.0943 27.6475 24.938C27.6475 24.7818 27.521 24.6552 27.3647 24.6552ZM26.6012 25.4252C26.4527 25.4252 26.3318 25.5461 26.3318 25.6945C26.3318 25.843 26.4527 25.9639 26.6012 25.9639C26.7503 25.9639 26.8705 25.8437 26.8705 25.6945C26.8705 25.5454 26.7503 25.4252 26.6012 25.4252ZM25.7407 25.65C25.5668 25.65 25.4261 25.7907 25.4261 25.9646C25.4261 26.1378 25.5668 26.2785 25.7407 26.2785C25.9146 26.2785 26.0553 26.1378 26.0553 25.9646C26.0553 25.7914 25.9146 25.65 25.7407 25.65ZM18.3199 9.35477C18.3199 9.60859 18.5257 9.81362 18.7795 9.81362C19.0333 9.81362 19.239 9.60859 19.239 9.35477C19.239 9.10095 19.0333 8.89521 18.7795 8.89521C18.5257 8.89521 18.3199 9.10024 18.3199 9.35477ZM19.3564 9.40214C19.3564 9.65454 19.5607 9.85887 19.8131 9.85887C20.0655 9.85887 20.2699 9.65454 20.2699 9.40214C20.2699 9.14973 20.0655 8.94541 19.8131 8.94541C19.5607 8.94541 19.3564 9.14973 19.3564 9.40214ZM20.7817 9.30881C20.5315 9.30881 20.3278 9.51173 20.3278 9.76272C20.3278 9.87725 20.3745 9.97977 20.4445 10.0597C20.3901 10.037 20.3307 10.0236 20.2684 10.0236C20.021 10.0236 19.8202 10.2244 19.8202 10.4718C19.8202 10.7193 20.021 10.9201 20.2684 10.9201C20.5159 10.9201 20.7167 10.7193 20.7167 10.4718C20.7167 10.3587 20.6707 10.2576 20.6014 10.1791C20.6566 10.2025 20.7174 10.2166 20.781 10.2166C21.0313 10.2166 21.2349 10.0137 21.2349 9.76272C21.2349 9.66939 21.1996 9.58738 21.1515 9.51526C21.2095 9.54283 21.2731 9.56122 21.341 9.56122C21.5877 9.56122 21.7878 9.36113 21.7878 9.11438C21.7878 8.86764 21.5877 8.66755 21.341 8.66755C21.0942 8.66755 20.8942 8.86764 20.8942 9.11438C20.8942 9.2063 20.9281 9.28619 20.9755 9.35689C20.9175 9.3279 20.8524 9.30881 20.7817 9.30881ZM26.1996 20.4669C26.008 20.4669 25.8531 20.6224 25.8531 20.8133C25.8531 21.0049 26.0087 21.1598 26.1996 21.1598C26.3912 21.1598 26.546 21.0042 26.546 20.8133C26.546 20.6217 26.3905 20.4669 26.1996 20.4669ZM26.9335 21.7692C26.9335 21.5861 26.785 21.4376 26.6019 21.4376C26.4187 21.4376 26.2703 21.5861 26.2703 21.7692C26.2703 21.953 26.4187 22.1015 26.6019 22.1015C26.785 22.1015 26.9335 21.953 26.9335 21.7692ZM27.3209 22.7258C27.3209 22.5505 27.1788 22.4083 27.0034 22.4083C26.8288 22.4083 26.6867 22.5505 26.6867 22.7258C26.6867 22.9004 26.8288 23.0425 27.0034 23.0425C27.1788 23.0425 27.3209 22.9011 27.3209 22.7258ZM27.2544 24.0295C27.4213 24.0295 27.5563 23.8945 27.5563 23.7276C27.5563 23.5608 27.4213 23.425 27.2544 23.425C27.0876 23.425 26.9525 23.5601 26.9525 23.7276C26.9525 23.8945 27.0876 24.0295 27.2544 24.0295ZM18.7929 10.3312C18.7929 10.0865 18.5949 9.88856 18.3503 9.88856C18.1057 9.88856 17.9077 10.0865 17.9077 10.3312C17.9077 10.5758 18.1057 10.7737 18.3503 10.7737C18.5949 10.7737 18.7929 10.5758 18.7929 10.3312ZM19.3218 9.7917C19.0757 9.7917 18.8763 9.99108 18.8763 10.2371C18.8763 10.4832 19.0757 10.6825 19.3218 10.6825C19.5678 10.6825 19.7672 10.4832 19.7672 10.2371C19.7672 9.99108 19.5678 9.7917 19.3218 9.7917ZM25.5039 21.7254C25.5039 21.9134 25.6566 22.0661 25.8439 22.0661C26.0313 22.0661 26.184 21.9134 26.184 21.7254C26.184 21.5373 26.0313 21.3853 25.8439 21.3853C25.6566 21.3853 25.5039 21.538 25.5039 21.7254ZM25.8984 22.6296C25.8984 22.8085 26.0433 22.9534 26.2222 22.9534C26.4011 22.9534 26.546 22.8085 26.546 22.6296C26.546 22.4508 26.4011 22.3058 26.2222 22.3058C26.0433 22.3058 25.8984 22.4508 25.8984 22.6296ZM26.879 23.5452C26.879 23.3755 26.7411 23.2377 26.5715 23.2377C26.4018 23.2377 26.2639 23.3755 26.2639 23.5452C26.2639 23.7149 26.4018 23.8528 26.5715 23.8528C26.7411 23.8528 26.879 23.7149 26.879 23.5452ZM26.862 24.2494C26.7016 24.2494 26.5708 24.3795 26.5708 24.5407C26.5708 24.7012 26.7008 24.832 26.862 24.832C27.0232 24.832 27.1533 24.7012 27.1533 24.5407C27.1533 24.3802 27.0232 24.2494 26.862 24.2494ZM19.4356 23.6152C19.6081 23.6152 19.7488 23.4752 19.7488 23.302C19.7488 23.1288 19.6081 22.9888 19.4356 22.9888C19.2624 22.9888 19.1224 23.1288 19.1224 23.302C19.1224 23.4752 19.2624 23.6152 19.4356 23.6152ZM18.6466 23.7001C18.8424 23.7001 19.0015 23.541 19.0015 23.3451C19.0015 23.1493 18.8424 22.9902 18.6466 22.9902C18.4507 22.9902 18.2916 23.1493 18.2916 23.3451C18.2916 23.541 18.4507 23.7001 18.6466 23.7001ZM18.9166 11.5564C19.1521 11.5564 19.343 11.3655 19.343 11.1294C19.343 10.8939 19.1521 10.703 18.9166 10.703C18.6812 10.703 18.4903 10.8939 18.4903 11.1294C18.4903 11.3655 18.6812 11.5564 18.9166 11.5564ZM20.2649 11.2425C20.2649 11.0014 20.0698 10.8056 19.8287 10.8056C19.5876 10.8056 19.3925 11.0014 19.3925 11.2425C19.3925 11.4836 19.5876 11.6787 19.8287 11.6787C20.0698 11.6787 20.2649 11.4836 20.2649 11.2425ZM25.1157 21.3987C24.9234 21.3987 24.7665 21.555 24.7665 21.7473C24.7665 21.9396 24.9227 22.0958 25.1157 22.0958C25.308 22.0958 25.465 21.9396 25.465 21.7473C25.465 21.555 25.308 21.3987 25.1157 21.3987ZM25.1383 22.5978C25.1383 22.7809 25.2861 22.9287 25.4692 22.9287C25.6523 22.9287 25.8001 22.7809 25.8001 22.5978C25.8001 22.4147 25.6523 22.2669 25.4692 22.2669C25.2861 22.2669 25.1383 22.4147 25.1383 22.5978ZM26.1366 23.4484C26.1366 23.2758 25.9967 23.1352 25.8242 23.1352C25.6516 23.1352 25.5117 23.2751 25.5117 23.4484C25.5117 23.6216 25.6516 23.7616 25.8242 23.7616C25.9967 23.7616 26.1366 23.6216 26.1366 23.4484ZM26.2632 24.6093C26.4258 24.6093 26.558 24.4771 26.558 24.3144C26.558 24.1511 26.4258 24.0196 26.2632 24.0196C26.1006 24.0196 25.9684 24.1518 25.9684 24.3144C25.9684 24.4778 26.1006 24.6093 26.2632 24.6093ZM26.6089 25.1487C26.6089 24.9953 26.4852 24.8716 26.3318 24.8716C26.1784 24.8716 26.0546 24.996 26.0546 25.1487C26.0546 25.3014 26.1784 25.4259 26.3318 25.4259C26.4852 25.4259 26.6089 25.3014 26.6089 25.1487ZM19.268 22.6318C19.268 22.4486 19.1195 22.3002 18.9364 22.3002C18.7533 22.3002 18.6048 22.4486 18.6048 22.6318C18.6048 22.8149 18.7533 22.9633 18.9364 22.9633C19.1195 22.9633 19.268 22.8149 19.268 22.6318ZM14.4137 23.0998C14.6427 23.0998 14.8287 22.9139 14.8287 22.6848C14.8287 22.4557 14.6427 22.2698 14.4137 22.2698C14.1846 22.2698 13.9987 22.4557 13.9987 22.6848C13.9987 22.9146 14.1846 23.0998 14.4137 23.0998ZM14.2914 22.0223C14.2914 21.7925 14.1047 21.6059 13.8749 21.6059C13.6444 21.6059 13.4578 21.7925 13.4578 22.0223C13.4578 22.2528 13.6444 22.4387 13.8749 22.4387C14.1047 22.4387 14.2914 22.2528 14.2914 22.0223ZM18.1269 12.0923C18.1269 12.3101 18.303 12.4868 18.5207 12.4868C18.7385 12.4868 18.9145 12.3101 18.9145 12.0923C18.9145 11.8746 18.7385 11.6985 18.5207 11.6985C18.3037 11.6985 18.1269 11.8746 18.1269 12.0923ZM18.9732 12.0478C18.9732 12.2747 19.157 12.4586 19.384 12.4586C19.6109 12.4586 19.7947 12.2747 19.7947 12.0478C19.7947 11.8208 19.6109 11.637 19.384 11.637C19.157 11.637 18.9732 11.8208 18.9732 12.0478ZM24.408 22.6318C24.408 22.8184 24.5593 22.9697 24.746 22.9697C24.9326 22.9697 25.0839 22.8184 25.0839 22.6318C25.0839 22.4451 24.9326 22.2938 24.746 22.2938C24.5586 22.2938 24.408 22.4451 24.408 22.6318ZM25.395 23.4321C25.395 23.2568 25.2529 23.1139 25.0768 23.1139C24.9015 23.1139 24.7587 23.256 24.7587 23.4321C24.7587 23.6074 24.9008 23.7503 25.0768 23.7503C25.2529 23.7503 25.395 23.6081 25.395 23.4321ZM25.605 23.9051C25.4402 23.9051 25.3066 24.0387 25.3066 24.2034C25.3066 24.3682 25.4402 24.5018 25.605 24.5018C25.7697 24.5018 25.9033 24.3682 25.9033 24.2034C25.9033 24.0387 25.7697 23.9051 25.605 23.9051ZM25.6976 24.6595C25.5435 24.6595 25.419 24.7839 25.419 24.938C25.419 25.0922 25.5442 25.2173 25.6976 25.2173C25.851 25.2173 25.9762 25.0922 25.9762 24.938C25.9762 24.7839 25.851 24.6595 25.6976 24.6595ZM20.0684 22.8021C20.0684 22.6487 19.9439 22.525 19.7912 22.525C19.6378 22.525 19.5134 22.6494 19.5134 22.8021C19.5134 22.9549 19.6378 23.0793 19.7912 23.0793C19.9439 23.08 20.0684 22.9556 20.0684 22.8021ZM19.1393 22.1467C19.1393 22.3108 19.2723 22.443 19.4356 22.443C19.5989 22.443 19.7318 22.3108 19.7318 22.1467C19.7318 21.9827 19.5989 21.8505 19.4356 21.8505C19.2723 21.8505 19.1393 21.9827 19.1393 22.1467ZM18.3786 22.525C18.5525 22.525 18.6932 22.3836 18.6932 22.2097C18.6932 22.0357 18.5525 21.8951 18.3786 21.8951C18.2047 21.8951 18.064 22.0357 18.064 22.2097C18.064 22.3843 18.2047 22.525 18.3786 22.525ZM17.5761 22.5314C17.7607 22.5314 17.9099 22.3822 17.9099 22.1977C17.9099 22.0131 17.7607 21.8639 17.5761 21.8639C17.3916 21.8639 17.2424 22.0131 17.2424 22.1977C17.2424 22.3822 17.3916 22.5314 17.5761 22.5314ZM15.1822 22.4508C15.3802 22.4508 15.5407 22.2903 15.5407 22.0923C15.5407 21.8943 15.3802 21.7339 15.1822 21.7339C14.9842 21.7339 14.8237 21.8943 14.8237 22.0923C14.8237 22.2903 14.9842 22.4508 15.1822 22.4508ZM15.0125 21.5111C15.0125 21.3139 14.8527 21.1541 14.6555 21.1541C14.4582 21.1541 14.2984 21.3139 14.2984 21.5111C14.2984 21.7084 14.4582 21.8682 14.6555 21.8682C14.8527 21.8682 15.0125 21.7077 15.0125 21.5111ZM16.5969 17.0471C16.5969 16.8604 16.4456 16.7091 16.2597 16.7091C16.073 16.7091 15.9217 16.8604 15.9217 17.0471C15.9217 17.2337 16.073 17.3843 16.2597 17.3843C16.4456 17.3843 16.5969 17.233 16.5969 17.0471ZM18.59 13.3381C18.7894 13.3381 18.9506 13.1769 18.9506 12.9775C18.9506 12.7788 18.7894 12.6169 18.59 12.6169C18.3906 12.6169 18.2294 12.7788 18.2294 12.9775C18.2294 13.1769 18.3906 13.3381 18.59 13.3381ZM19.3833 12.5759C19.1712 12.5759 18.9994 12.7477 18.9994 12.9591C18.9994 13.1712 19.1712 13.343 19.3833 13.343C19.5954 13.343 19.7672 13.1712 19.7672 12.9591C19.7672 12.747 19.5954 12.5759 19.3833 12.5759ZM24.1372 22.6021C23.9484 22.6021 23.795 22.7555 23.795 22.9443C23.795 23.133 23.9484 23.2865 24.1372 23.2865C24.326 23.2865 24.4794 23.133 24.4794 22.9443C24.4794 22.7555 24.3267 22.6021 24.1372 22.6021ZM24.4426 24.0076C24.6201 24.0076 24.7643 23.8641 24.7643 23.6866C24.7643 23.5092 24.6208 23.3649 24.4426 23.3649C24.2652 23.3649 24.1217 23.5085 24.1217 23.6866C24.1217 23.8641 24.2652 24.0076 24.4426 24.0076ZM25.2359 24.3745C25.2359 24.2084 25.1016 24.0741 24.9354 24.0741C24.77 24.0741 24.635 24.2084 24.635 24.3745C24.635 24.5407 24.7693 24.675 24.9354 24.675C25.1009 24.675 25.2359 24.5407 25.2359 24.3745ZM25.0768 24.938C24.9227 24.938 24.7976 25.0632 24.7976 25.218C24.7976 25.3728 24.9227 25.498 25.0768 25.498C25.2317 25.498 25.3568 25.3728 25.3568 25.218C25.3568 25.0632 25.2317 24.938 25.0768 24.938ZM18.9796 21.3761C18.8205 21.3761 18.6918 21.5055 18.6918 21.6639C18.6918 21.8229 18.8205 21.9516 18.9796 21.9516C19.1386 21.9516 19.2673 21.8229 19.2673 21.6639C19.268 21.5048 19.1386 21.3761 18.9796 21.3761ZM18.2464 21.818C18.4111 21.818 18.544 21.6844 18.544 21.5203C18.544 21.3556 18.4104 21.222 18.2464 21.222C18.0817 21.222 17.948 21.3556 17.948 21.5203C17.9487 21.6844 18.0817 21.818 18.2464 21.818ZM17.4955 21.8194C17.6659 21.8194 17.8038 21.6815 17.8038 21.5111C17.8038 21.3408 17.6659 21.2029 17.4955 21.2029C17.3252 21.2029 17.1873 21.3408 17.1873 21.5111C17.1873 21.6815 17.3252 21.8194 17.4955 21.8194ZM16.7468 21.8251C16.9186 21.8251 17.0579 21.6858 17.0579 21.514C17.0579 21.3422 16.9186 21.2029 16.7468 21.2029C16.575 21.2029 16.4357 21.3422 16.4357 21.514C16.4357 21.6858 16.575 21.8251 16.7468 21.8251ZM15.9995 21.8046C16.1713 21.8046 16.3106 21.6653 16.3106 21.4935C16.3106 21.3217 16.1713 21.1824 15.9995 21.1824C15.8277 21.1824 15.6884 21.3217 15.6884 21.4935C15.6884 21.6653 15.827 21.8046 15.9995 21.8046ZM15.7591 21.0261C15.7591 20.8543 15.6198 20.715 15.448 20.715C15.2762 20.715 15.1369 20.8543 15.1369 21.0261C15.1369 21.1979 15.2762 21.3372 15.448 21.3372C15.6198 21.3372 15.7591 21.1979 15.7591 21.0261ZM16.6874 17.863C16.8536 17.863 16.9886 17.7279 16.9886 17.5618C16.9886 17.3949 16.8536 17.2606 16.6874 17.2606C16.5206 17.2606 16.3862 17.3956 16.3862 17.5618C16.3862 17.7279 16.5213 17.863 16.6874 17.863ZM16.691 16.876C16.691 17.04 16.8239 17.1729 16.9879 17.1729C17.1519 17.1729 17.2856 17.04 17.2856 16.876C17.2856 16.7119 17.1526 16.579 16.9879 16.579C16.8239 16.579 16.691 16.7119 16.691 16.876ZM16.9921 16.1909C16.9921 16.3549 17.1251 16.4871 17.2891 16.4871C17.4531 16.4871 17.586 16.3542 17.586 16.1909C17.586 16.0268 17.4531 15.8939 17.2891 15.8939C17.1251 15.8939 16.9921 16.0268 16.9921 16.1909ZM17.2884 15.5058C17.2884 15.6719 17.4227 15.8063 17.5889 15.8063C17.755 15.8063 17.8893 15.6719 17.8893 15.5058C17.8893 15.3396 17.755 15.2053 17.5889 15.2053C17.4227 15.2053 17.2884 15.3389 17.2884 15.5058ZM17.5853 14.82C17.5853 14.9882 17.7218 15.1247 17.8901 15.1247C18.0583 15.1247 18.1948 14.9882 18.1948 14.82C18.1948 14.6517 18.0583 14.5153 17.8901 14.5153C17.7218 14.5153 17.5853 14.6517 17.5853 14.82ZM17.9219 14.1554C17.9219 14.3258 18.0597 14.4636 18.2301 14.4636C18.4005 14.4636 18.5384 14.3258 18.5384 14.1554C18.5384 13.985 18.4005 13.8471 18.2301 13.8471C18.0604 13.8471 17.9219 13.985 17.9219 14.1554ZM19.2001 13.8146C19.2001 13.6371 19.0559 13.4929 18.8785 13.4929C18.701 13.4929 18.5568 13.6364 18.5568 13.8146C18.5568 13.9921 18.701 14.1363 18.8785 14.1363C19.0559 14.1363 19.2001 13.9921 19.2001 13.8146ZM19.9376 14.0055C19.9376 13.8118 19.7806 13.6541 19.5862 13.6541C19.3917 13.6541 19.2348 13.8118 19.2348 14.0055C19.2348 14.1999 19.3917 14.3569 19.5862 14.3569C19.7806 14.3569 19.9376 14.1992 19.9376 14.0055ZM24.1485 24.8461C24.1485 25.013 24.2836 25.148 24.4504 25.148C24.6173 25.148 24.7523 25.013 24.7523 24.8461C24.7523 24.6793 24.6173 24.5442 24.4504 24.5442C24.2836 24.5442 24.1485 24.68 24.1485 24.8461ZM20.2833 22.7845C20.4205 22.7845 20.5315 22.6735 20.5315 22.5356C20.5315 22.3984 20.4205 22.2874 20.2833 22.2874C20.1461 22.2874 20.0351 22.3984 20.0351 22.5356C20.0351 22.6735 20.1461 22.7845 20.2833 22.7845ZM19.9892 21.6653C19.8563 21.6653 19.7488 21.7727 19.7488 21.9057C19.7488 22.0386 19.857 22.146 19.9892 22.146C20.1221 22.146 20.2296 22.0386 20.2296 21.9057C20.2296 21.7727 20.1221 21.6653 19.9892 21.6653ZM19.5268 21.1541C19.3981 21.1541 19.2942 21.258 19.2942 21.3867C19.2942 21.5154 19.3981 21.6193 19.5268 21.6193C19.6555 21.6193 19.7594 21.5154 19.7594 21.3867C19.7594 21.258 19.6555 21.1541 19.5268 21.1541ZM18.9357 21.2446C19.0595 21.2446 19.1606 21.1442 19.1606 21.0198C19.1606 20.8953 19.0602 20.7949 18.9357 20.7949C18.8113 20.7949 18.7109 20.8953 18.7109 21.0198C18.7116 21.1442 18.812 21.2446 18.9357 21.2446ZM18.2648 21.0622C18.3878 21.0622 18.4875 20.9625 18.4875 20.8388C18.4875 20.7158 18.3878 20.6161 18.2648 20.6161C18.1418 20.6161 18.0421 20.7158 18.0421 20.8388C18.0421 20.9625 18.1418 21.0622 18.2648 21.0622ZM17.3435 20.8246C17.3435 20.9484 17.4439 21.048 17.567 21.048C17.6907 21.048 17.7904 20.9477 17.7904 20.8246C17.7904 20.7009 17.69 20.6012 17.567 20.6012C17.4439 20.6012 17.3435 20.7016 17.3435 20.8246ZM16.8691 20.6048C16.7454 20.6048 16.645 20.7051 16.645 20.8289C16.645 20.9526 16.7454 21.053 16.8691 21.053C16.9929 21.053 17.0933 20.9526 17.0933 20.8289C17.0933 20.7051 16.9929 20.6048 16.8691 20.6048ZM16.4859 20.5736C16.4859 20.4492 16.3855 20.3488 16.2611 20.3488C16.1367 20.3488 16.0363 20.4499 16.0363 20.5736C16.0363 20.6974 16.1367 20.7985 16.2611 20.7985C16.3855 20.7978 16.4859 20.6974 16.4859 20.5736ZM16.0681 19.9112C16.0681 20.0356 16.1692 20.1367 16.2936 20.1367C16.4181 20.1367 16.5192 20.0356 16.5192 19.9112C16.5192 19.7867 16.4181 19.6856 16.2936 19.6856C16.1692 19.6856 16.0681 19.7867 16.0681 19.9112ZM16.8048 19.2742C16.8048 19.1483 16.703 19.0465 16.5771 19.0465C16.4513 19.0465 16.3488 19.1483 16.3488 19.2742C16.3488 19.4 16.4506 19.5018 16.5771 19.5018C16.703 19.5018 16.8048 19.4 16.8048 19.2742ZM16.8614 18.4017C16.7313 18.4017 16.6259 18.507 16.6259 18.6371C16.6259 18.7672 16.7313 18.8719 16.8614 18.8719C16.9914 18.8719 17.0968 18.7665 17.0968 18.6371C17.0961 18.507 16.9907 18.4017 16.8614 18.4017ZM17.3874 17.9994C17.3874 17.8658 17.2785 17.7569 17.1449 17.7569C17.0112 17.7569 16.9024 17.8651 16.9024 17.9994C16.9024 18.1337 17.0105 18.2419 17.1449 18.2419C17.2792 18.2419 17.3874 18.1337 17.3874 17.9994ZM17.4291 17.1128C17.2912 17.1128 17.1795 17.2245 17.1795 17.3624C17.1795 17.5003 17.2912 17.612 17.4291 17.612C17.567 17.612 17.6787 17.5003 17.6787 17.3624C17.6787 17.2252 17.567 17.1128 17.4291 17.1128ZM17.7126 16.4687C17.5705 16.4687 17.456 16.5833 17.456 16.7254C17.456 16.8675 17.5712 16.982 17.7126 16.982C17.854 16.982 17.9692 16.8675 17.9692 16.7254C17.9692 16.5833 17.8547 16.4687 17.7126 16.4687ZM18.2612 16.0884C18.2612 15.9427 18.1432 15.8246 17.9968 15.8246C17.8512 15.8246 17.7324 15.9427 17.7324 16.0884C17.7324 16.234 17.8505 16.3521 17.9968 16.3521C18.1425 16.3528 18.2612 16.2347 18.2612 16.0884ZM18.281 15.1798C18.1311 15.1798 18.0095 15.3015 18.0095 15.4513C18.0095 15.6012 18.1311 15.7221 18.281 15.7221C18.4309 15.7221 18.5525 15.6005 18.5525 15.4513C18.5525 15.3022 18.4309 15.1798 18.281 15.1798ZM18.8834 14.8384C18.8834 14.6842 18.759 14.5598 18.6048 14.5598C18.4507 14.5598 18.3263 14.6849 18.3263 14.8384C18.3263 14.9925 18.4514 15.1169 18.6048 15.1169C18.7583 15.1169 18.8834 14.9925 18.8834 14.8384ZM19.5423 14.7903C19.5423 14.6298 19.4123 14.5004 19.2518 14.5004C19.0913 14.5004 18.9612 14.6305 18.9612 14.7903C18.9612 14.9508 19.0913 15.0809 19.2518 15.0809C19.4123 15.0809 19.5423 14.9508 19.5423 14.7903ZM24.4978 25.493C24.4978 25.6861 24.3415 25.8423 24.1485 25.8423C23.9555 25.8423 23.7993 25.6861 23.7993 25.493C23.7993 25.445 23.8092 25.399 23.8268 25.3573C23.7689 25.3912 23.7052 25.416 23.6331 25.416C23.4182 25.416 23.2436 25.2413 23.2436 25.0264C23.2436 24.9578 23.2662 24.897 23.2966 24.8412C23.2881 24.8419 23.2803 24.8461 23.2718 24.8461C23.0421 24.8461 22.8568 24.6602 22.8568 24.4311C22.8568 24.3477 22.8879 24.2741 22.9296 24.2091C22.726 24.1709 22.5691 24.0005 22.5691 23.7849C22.5691 23.7092 22.5931 23.6414 22.627 23.5792C22.4298 23.5254 22.282 23.3529 22.282 23.1387C22.282 23.0687 22.2997 23.0044 22.3273 22.945C22.1378 22.8792 21.9999 22.7046 21.9999 22.4932C21.9999 22.4253 22.0141 22.3617 22.0388 22.303C21.8571 22.2309 21.7277 22.0548 21.7277 21.847C21.7277 21.7819 21.7419 21.7204 21.7645 21.6639C21.5835 21.5882 21.4555 21.4093 21.4555 21.2008C21.4555 21.1371 21.4704 21.0777 21.4916 21.0226C21.3106 20.9434 21.184 20.7645 21.184 20.5546C21.184 20.4923 21.1989 20.4351 21.2194 20.3806C21.0391 20.2993 20.9125 20.1197 20.9125 19.9091C20.9125 19.8475 20.9281 19.791 20.9472 19.7365C20.769 19.6524 20.6432 19.4735 20.6432 19.2628C20.6432 19.1971 20.6587 19.1349 20.6806 19.0769C20.5095 18.9928 20.3893 18.8203 20.3893 18.6166C20.3893 18.5424 20.4063 18.4731 20.4339 18.4095C20.2692 18.3303 20.1539 18.1656 20.1539 17.9711C20.1539 17.8856 20.1815 17.8085 20.2204 17.7385C20.0542 17.6735 19.9354 17.5137 19.9354 17.3249C19.9354 17.2245 19.975 17.1361 20.0309 17.0619C19.8534 17.0209 19.7184 16.8696 19.7184 16.6794C19.7184 16.5621 19.7707 16.4588 19.8513 16.3853C19.659 16.3825 19.5035 16.2262 19.5035 16.0332C19.5035 15.8381 19.6618 15.6804 19.857 15.6804C19.9856 15.6804 20.0938 15.7532 20.1553 15.8558C20.1744 15.8041 20.2034 15.7582 20.2395 15.7179C20.079 15.7023 19.9475 15.5977 19.8951 15.4506C19.8654 15.5927 19.7453 15.7016 19.594 15.7016C19.42 15.7016 19.28 15.5609 19.28 15.3877C19.28 15.2145 19.4207 15.0731 19.594 15.0731C19.7212 15.0731 19.8301 15.1502 19.8796 15.259C19.8951 15.1516 19.9496 15.0597 20.0316 14.996C20.0189 14.9974 20.0076 15.0038 19.9948 15.0038C19.7848 15.0038 19.6138 14.8334 19.6138 14.6234C19.6138 14.4134 19.7841 14.2423 19.9948 14.2423C20.0358 14.2423 20.074 14.2537 20.1108 14.2657C20.0712 14.2006 20.0422 14.1285 20.0422 14.0465C20.0422 13.9291 20.0896 13.8231 20.1659 13.746C20.1348 13.7538 20.1051 13.7651 20.0719 13.7651C19.8471 13.7651 19.6654 13.5827 19.6654 13.3586C19.6654 13.1338 19.8478 12.952 20.0719 12.952C20.1638 12.952 20.2437 12.9881 20.3116 13.039C20.3116 13.0348 20.3095 13.0319 20.3095 13.0277C20.3095 12.7831 20.5081 12.5844 20.7527 12.5844C20.7697 12.5844 20.7846 12.5922 20.8015 12.5943C20.774 12.5356 20.7556 12.472 20.7556 12.4027C20.7556 12.1517 20.9592 11.9481 21.2102 11.9481C21.2257 11.9481 21.2378 11.9552 21.2526 11.9566C21.2321 11.905 21.2194 11.8498 21.2194 11.7911C21.2194 11.5401 21.423 11.3365 21.674 11.3365C21.6994 11.3365 21.7221 11.3471 21.7461 11.3514C21.739 11.3203 21.727 11.2913 21.727 11.2573C21.727 11.0099 21.9278 10.8091 22.1753 10.8091C22.2127 10.8091 22.246 10.8218 22.2799 10.8303C22.2785 10.8162 22.2714 10.8041 22.2714 10.7893C22.2714 10.5517 22.4637 10.3594 22.7013 10.3594C22.9388 10.3594 23.1311 10.5517 23.1311 10.7893C23.1311 11.0269 22.9388 11.2192 22.7013 11.2192C22.6695 11.2192 22.6412 11.2078 22.6115 11.2008C22.6143 11.2199 22.6228 11.2368 22.6228 11.2566C22.6228 11.5041 22.422 11.7042 22.1746 11.7042C22.1505 11.7042 22.1307 11.6943 22.1074 11.6907C22.1152 11.724 22.1272 11.7551 22.1272 11.7904C22.1272 12.0414 21.9236 12.2457 21.6726 12.2457C21.6577 12.2457 21.6443 12.2387 21.6294 12.2373C21.6499 12.2882 21.6627 12.3433 21.6627 12.402C21.6627 12.4395 21.6499 12.472 21.6415 12.5066C21.7122 12.3454 21.8727 12.2323 22.0593 12.2323C22.0883 12.2323 22.1137 12.2436 22.1413 12.2486C22.1399 12.2358 22.1335 12.2245 22.1335 12.2111C22.1335 11.9651 22.3329 11.7657 22.579 11.7657C22.6235 11.7657 22.6638 11.7791 22.7048 11.7911C22.7069 11.5599 22.8943 11.3733 23.1255 11.3733C23.3581 11.3733 23.5469 11.5621 23.5469 11.7947C23.5469 12.0273 23.3581 12.216 23.1255 12.216C23.0887 12.216 23.0555 12.204 23.0208 12.1948C23.0208 12.2005 23.0244 12.2054 23.0244 12.2111C23.0244 12.4571 22.825 12.6558 22.579 12.6558C22.5535 12.6558 22.5316 12.6452 22.5076 12.6417C22.5097 12.6579 22.5175 12.6728 22.5175 12.6897C22.5175 12.9429 22.3124 13.1479 22.06 13.1479C22.0438 13.1479 22.0303 13.1401 22.0141 13.1387C22.0225 13.1748 22.036 13.2087 22.036 13.2469C22.036 13.4279 21.9292 13.5806 21.7786 13.6562C21.826 13.64 21.8748 13.6265 21.9278 13.6265C21.949 13.6265 21.9667 13.6357 21.9865 13.6386C21.9851 13.623 21.9773 13.6096 21.9773 13.594C21.9773 13.3395 22.1837 13.133 22.4383 13.133C22.4757 13.133 22.5097 13.1458 22.545 13.1543C22.5521 12.9181 22.7437 12.7272 22.982 12.7272C23.0399 12.7272 23.0951 12.7399 23.146 12.7604C23.1672 12.5519 23.3369 12.3871 23.5511 12.3871C23.7795 12.3871 23.9647 12.5724 23.9647 12.8C23.9647 13.0277 23.7795 13.2136 23.5511 13.2136C23.5037 13.2136 23.4592 13.2016 23.4168 13.1868C23.4055 13.4201 23.2167 13.606 22.9813 13.606C22.9516 13.606 22.9261 13.5947 22.8978 13.5891C22.8978 13.5905 22.8985 13.5919 22.8985 13.5933C22.8985 13.8478 22.6921 14.0543 22.4376 14.0543C22.4199 14.0543 22.4043 14.0458 22.3867 14.0444C22.3888 14.0621 22.3973 14.0783 22.3973 14.0967C22.3973 14.2685 22.3004 14.4127 22.1625 14.4948C22.2014 14.4849 22.2389 14.4714 22.2806 14.4714C22.311 14.4714 22.3372 14.4834 22.3654 14.4884C22.3704 14.2431 22.5691 14.0451 22.8151 14.0451C22.8674 14.0451 22.9162 14.0585 22.9629 14.0748C22.9876 13.8613 23.1622 13.6937 23.3821 13.6937C23.4557 13.6937 23.5207 13.717 23.5815 13.7489C23.6105 13.5537 23.7717 13.401 23.9746 13.401C24.198 13.401 24.3797 13.5827 24.3797 13.8061C24.3797 14.0295 24.198 14.2112 23.9746 14.2112C23.9117 14.2112 23.8544 14.1943 23.8014 14.1688C23.7774 14.383 23.6027 14.5513 23.3821 14.5513C23.339 14.5513 23.3001 14.5386 23.2605 14.5273C23.2443 14.7613 23.0541 14.9487 22.8151 14.9487C22.7932 14.9487 22.7748 14.9395 22.7536 14.9359C22.7536 14.9402 22.7557 14.943 22.7557 14.9465C22.7557 15.1304 22.6482 15.2845 22.4962 15.3637C22.5401 15.3495 22.5853 15.3361 22.6341 15.3361C22.6794 15.3361 22.7211 15.3495 22.7621 15.3615C22.7826 15.1381 22.9643 14.9607 23.1934 14.9607C23.2612 14.9607 23.3234 14.9791 23.3807 15.0059C23.4154 14.8101 23.5787 14.6588 23.7844 14.6588C23.8728 14.6588 23.9506 14.6927 24.0177 14.7394C24.0524 14.5556 24.2065 14.4149 24.3995 14.4149C24.6187 14.4149 24.7962 14.5923 24.7962 14.8115C24.7962 15.0307 24.6187 15.2081 24.3995 15.2081C24.321 15.2081 24.2518 15.1791 24.1902 15.1395C24.1591 15.3396 23.9937 15.4959 23.7844 15.4959C23.7257 15.4959 23.6706 15.4832 23.6204 15.4619C23.5886 15.674 23.4139 15.8388 23.1941 15.8388C23.1573 15.8388 23.1255 15.8261 23.0915 15.8183C23.0795 16.0622 22.8823 16.2573 22.6348 16.2573C22.6122 16.2573 22.5931 16.2474 22.5719 16.2446C22.5669 16.3641 22.5196 16.4716 22.4432 16.5543C22.4835 16.5564 22.5203 16.5663 22.557 16.5769C22.5917 16.3648 22.767 16.2008 22.989 16.2008C23.0498 16.2008 23.1071 16.2135 23.1601 16.2354C23.1941 16.0339 23.3616 15.8777 23.5723 15.8777C23.6564 15.8777 23.73 15.9088 23.7964 15.9505C23.836 15.7667 23.9916 15.6267 24.1874 15.6267C24.2906 15.6267 24.3826 15.6684 24.4547 15.732C24.495 15.5609 24.642 15.4301 24.8258 15.4301C25.0401 15.4301 25.214 15.6041 25.214 15.8183C25.214 16.0332 25.0401 16.2064 24.8258 16.2064C24.7311 16.2064 24.647 16.1682 24.5791 16.1117C24.5416 16.2983 24.3847 16.4419 24.1874 16.4419C24.1118 16.4419 24.0446 16.4157 23.9838 16.3789C23.947 16.5769 23.7816 16.7296 23.573 16.7296C23.5207 16.7296 23.4712 16.7169 23.4246 16.6999C23.3977 16.9198 23.2167 17.093 22.9897 17.093C22.9537 17.093 22.9212 17.0803 22.8879 17.0725C22.8766 17.1849 22.8328 17.2882 22.7564 17.3631C22.8193 17.3638 22.8787 17.3758 22.9332 17.3984C22.9791 17.2097 23.141 17.0669 23.344 17.0669C23.4217 17.0669 23.491 17.093 23.5539 17.1298C23.5914 16.9403 23.7512 16.7947 23.9513 16.7947C24.0517 16.7947 24.1408 16.835 24.2122 16.8944C24.256 16.7225 24.4045 16.5932 24.5897 16.5932C24.7113 16.5932 24.8159 16.6504 24.8888 16.7367C24.9291 16.5705 25.0726 16.444 25.2508 16.444C25.4607 16.444 25.6304 16.6144 25.6304 16.8236C25.6304 17.0336 25.4607 17.2033 25.2508 17.2033C25.1376 17.2033 25.0387 17.1517 24.9694 17.0732C24.9298 17.2507 24.7785 17.3864 24.589 17.3864C24.4957 17.3864 24.4137 17.3497 24.3458 17.2952C24.3041 17.4798 24.1471 17.6197 23.9499 17.6197C23.8799 17.6197 23.8169 17.5978 23.759 17.5667C23.7236 17.7689 23.5553 17.9259 23.3425 17.9259C23.2923 17.9259 23.2464 17.9132 23.2018 17.8976C23.1813 18.0206 23.1163 18.1238 23.0194 18.1938C23.0413 18.1903 23.0611 18.1811 23.0838 18.1811C23.1644 18.1811 23.2358 18.208 23.3008 18.2462C23.3468 18.0666 23.5023 17.9301 23.696 17.9301C23.7915 17.9301 23.8749 17.9676 23.9449 18.022C23.9859 17.8446 24.1379 17.7095 24.3274 17.7095C24.4462 17.7095 24.5501 17.7633 24.6229 17.8453C24.6675 17.6813 24.811 17.5582 24.9892 17.5582C25.1313 17.5582 25.2501 17.6388 25.3172 17.7527C25.3533 17.5851 25.4954 17.4571 25.6736 17.4571C25.8786 17.4571 26.0454 17.6233 26.0454 17.829C26.0454 18.0341 25.8793 18.2002 25.6736 18.2002C25.5392 18.2002 25.4261 18.1246 25.3611 18.0171C25.3257 18.1945 25.1765 18.331 24.9892 18.331C24.8775 18.331 24.7785 18.2822 24.7078 18.2059C24.6639 18.3791 24.5141 18.5106 24.3267 18.5106C24.2383 18.5106 24.1606 18.4759 24.0941 18.4272C24.0552 18.6166 23.8954 18.7616 23.6946 18.7616C23.6268 18.7616 23.5652 18.7418 23.5087 18.7128C23.467 18.915 23.2966 19.0705 23.0816 19.0705C23.0633 19.0705 23.0484 19.0621 23.0307 19.0599C23.0498 19.1066 23.0583 19.1582 23.0611 19.2105C23.1354 19.0903 23.2619 19.0062 23.4139 19.0062C23.5115 19.0062 23.5964 19.0444 23.6678 19.1002C23.7116 18.927 23.8615 18.7955 24.0488 18.7955C24.162 18.7955 24.2638 18.8436 24.3366 18.9192C24.3797 18.7524 24.5247 18.6265 24.7057 18.6265C24.8471 18.6265 24.9644 18.7057 25.0323 18.8181C25.0712 18.652 25.2133 18.5254 25.3915 18.5254C25.5611 18.5254 25.699 18.64 25.7457 18.7941C25.7676 18.6152 25.9139 18.4738 26.0985 18.4738C26.2978 18.4738 26.4598 18.6357 26.4598 18.8351C26.4598 19.0345 26.2978 19.1964 26.0985 19.1964C25.9366 19.1964 25.8051 19.0889 25.7591 18.9419C25.7372 19.1292 25.5845 19.2763 25.3915 19.2763C25.2564 19.2763 25.1433 19.2006 25.0768 19.0939C25.0387 19.2678 24.8909 19.4014 24.7057 19.4014C24.5982 19.4014 24.5013 19.3583 24.4313 19.2876C24.3889 19.4629 24.2376 19.5966 24.0495 19.5966C23.9612 19.5966 23.8841 19.5619 23.8176 19.5138C23.7766 19.7033 23.6162 19.8475 23.4147 19.8475C23.3793 19.8475 23.3482 19.8355 23.3157 19.8277C23.3333 19.8744 23.3461 19.9246 23.3461 19.9769C23.3461 20.1219 23.2697 20.2442 23.1601 20.3234C23.1799 20.3205 23.1976 20.312 23.2174 20.312C23.2725 20.312 23.3242 20.3234 23.3722 20.3432C23.3609 20.3064 23.3489 20.2689 23.3489 20.2279C23.3489 20.008 23.5271 19.8306 23.7462 19.8306C23.8615 19.8306 23.9633 19.8815 24.0361 19.96C24.0764 19.7903 24.2214 19.6616 24.4038 19.6616C24.5416 19.6616 24.6569 19.738 24.7247 19.8475C24.7587 19.6764 24.9022 19.5449 25.0839 19.5449C25.2571 19.5449 25.3971 19.6658 25.4388 19.8263C25.4551 19.6418 25.6057 19.4962 25.7937 19.4962C25.9931 19.4962 26.155 19.6581 26.155 19.8574C26.155 20.0568 25.9931 20.2187 25.7937 20.2187C25.6262 20.2187 25.4919 20.1028 25.4508 19.9486C25.4346 20.1395 25.279 20.2908 25.0839 20.2908C24.9517 20.2908 24.8407 20.218 24.7749 20.1141C24.7417 20.293 24.5918 20.4315 24.4038 20.4315C24.2942 20.4315 24.1966 20.3849 24.1266 20.312C24.087 20.4902 23.9357 20.626 23.7462 20.626C23.6939 20.626 23.6451 20.6147 23.5992 20.5963C23.6119 20.6359 23.6239 20.6762 23.6239 20.72C23.6239 20.9448 23.4415 21.1265 23.2174 21.1265C23.1156 21.1265 23.0251 21.0855 22.9544 21.024C22.936 21.0678 22.9077 21.1046 22.878 21.14C23.0003 21.1562 23.1022 21.2227 23.1672 21.3217C23.2231 21.1796 23.3602 21.0777 23.5228 21.0777C23.5978 21.0777 23.6642 21.1046 23.7236 21.1428C23.7123 21.1067 23.701 21.0707 23.701 21.0304C23.701 20.8225 23.87 20.6535 24.0778 20.6535C24.2185 20.6535 24.3359 20.7334 24.4009 20.8473C24.4264 20.6698 24.5734 20.5312 24.758 20.5312C24.9305 20.5312 25.0684 20.6528 25.1079 20.8133C25.1136 20.621 25.2691 20.4662 25.4629 20.4662C25.6601 20.4662 25.8192 20.626 25.8192 20.8225C25.8192 21.0198 25.6594 21.1796 25.4629 21.1796C25.296 21.1796 25.1624 21.0622 25.1235 20.9074C25.1178 21.1053 24.9581 21.2644 24.7587 21.2644C24.6236 21.2644 24.5098 21.1873 24.4462 21.0785C24.4214 21.263 24.2701 21.4072 24.0792 21.4072C24.0064 21.4072 23.9421 21.3811 23.8848 21.345C23.8968 21.3825 23.9081 21.4199 23.9081 21.4609C23.9081 21.673 23.7363 21.8449 23.5242 21.8449C23.3949 21.8449 23.286 21.7763 23.216 21.6787C23.1941 21.7437 23.1594 21.8017 23.1106 21.8477C23.2895 21.8477 23.4344 21.9714 23.4797 22.1361C23.5122 21.9686 23.6529 21.8399 23.8297 21.8399C23.9251 21.8399 24.0114 21.8788 24.0757 21.9389C24.0644 21.9042 24.0538 21.8689 24.0538 21.8307C24.0538 21.6335 24.2136 21.4737 24.4108 21.4737C24.6081 21.4737 24.7679 21.6335 24.7679 21.8307C24.7679 22.028 24.6081 22.1878 24.4108 22.1878C24.3175 22.1878 24.2334 22.1496 24.1697 22.0909C24.1818 22.1269 24.1924 22.163 24.1924 22.2026C24.1924 22.4034 24.0298 22.566 23.829 22.566C23.6649 22.566 23.5313 22.455 23.4861 22.3051C23.4641 22.4281 23.3892 22.5299 23.281 22.5844C23.3164 22.5731 23.3524 22.5618 23.392 22.5618C23.5956 22.5618 23.7604 22.7272 23.7604 22.9308C23.7604 23.1344 23.5956 23.2992 23.392 23.2992C23.315 23.2992 23.2478 23.2702 23.1884 23.2299C23.1778 23.2808 23.1615 23.3282 23.1354 23.3713C23.2231 23.3989 23.2952 23.4519 23.3496 23.5233C23.3927 23.3819 23.52 23.2766 23.6755 23.2766C23.8671 23.2766 24.022 23.4321 24.022 23.623C24.022 23.8146 23.8671 23.9694 23.6755 23.9694C23.5787 23.9694 23.4917 23.9291 23.4288 23.8655C23.4168 23.9277 23.3934 23.9836 23.3581 24.0338C23.4889 24.0635 23.5992 24.1476 23.6508 24.2692C23.6741 24.1122 23.8028 23.9906 23.9654 23.9906C24.1443 23.9906 24.2899 24.1356 24.2899 24.3152C24.2899 24.494 24.145 24.639 23.9654 24.639C23.8382 24.639 23.7314 24.564 23.6777 24.4573C23.6734 24.5244 23.6515 24.5838 23.6197 24.639C23.6232 24.6383 23.626 24.6368 23.6296 24.6368C23.8445 24.6368 24.0191 24.8115 24.0191 25.0264C24.0191 25.0858 24.0036 25.1409 23.9796 25.1911C24.0298 25.1636 24.0842 25.1438 24.145 25.1438C24.3415 25.1438 24.4978 25.3 24.4978 25.493ZM20.9988 13.3826C21.0306 13.3755 21.061 13.3635 21.0949 13.3635C21.1098 13.3635 21.1225 13.3706 21.1367 13.372C21.1268 13.3367 21.1169 13.302 21.1147 13.2645C21.0836 13.3112 21.0455 13.3501 20.9988 13.3826ZM22.6744 18.787C22.6737 18.787 22.6737 18.7877 22.6744 18.787V18.787ZM23.2315 22.6042C23.1934 22.6169 23.1545 22.6282 23.1121 22.6282C23.0527 22.6282 22.9975 22.6127 22.9473 22.5886C22.9388 22.6303 22.9296 22.6699 22.9106 22.7067C22.9643 22.7272 23.0117 22.7576 23.0534 22.7958C23.0873 22.7116 23.1509 22.6452 23.2315 22.6042ZM22.837 21.9608C22.8342 21.9608 22.8314 21.9629 22.8285 21.9629C22.7812 21.9629 22.7373 21.9502 22.6949 21.9361C22.6878 21.9742 22.6843 22.0124 22.6688 22.0471C22.6992 22.0598 22.7225 22.0824 22.7494 22.1001C22.7691 22.0471 22.7981 21.999 22.837 21.9608ZM22.9834 20.3976C22.96 20.4011 22.9395 20.411 22.9155 20.411C22.8356 20.411 22.7656 20.3842 22.7013 20.346C22.6885 20.3757 22.6659 20.399 22.6475 20.4259C22.7289 20.445 22.8045 20.4789 22.8618 20.5369C22.8908 20.481 22.9325 20.4351 22.9834 20.3976ZM22.282 15.4209C22.2679 15.4209 22.2566 15.4139 22.2424 15.4132C22.2424 15.4167 22.2445 15.4195 22.2445 15.4224C22.2445 15.5461 22.1943 15.6557 22.1187 15.7419C22.1413 15.7433 22.1618 15.7504 22.1837 15.7554C22.1979 15.5956 22.2912 15.4634 22.4255 15.3919C22.3796 15.4068 22.3329 15.4209 22.282 15.4209ZM21.9278 14.5662C21.913 14.5662 21.9002 14.5591 21.8854 14.5577C21.8889 14.5796 21.8981 14.5987 21.8981 14.6213C21.8981 14.6503 21.8868 14.6757 21.8811 14.7033C21.9214 14.6369 21.9759 14.5824 22.043 14.5428C22.0056 14.5527 21.9688 14.5662 21.9278 14.5662ZM21.7199 13.6782C21.6733 13.6937 21.6259 13.7071 21.5743 13.7071C21.558 13.7071 21.5439 13.6994 21.5276 13.6979C21.5389 13.7375 21.5524 13.7764 21.5524 13.8203C21.5524 13.8231 21.551 13.8252 21.551 13.828C21.5955 13.7651 21.6507 13.7128 21.7199 13.6782ZM21.2095 12.8538C21.1897 12.8538 21.1734 12.8446 21.1543 12.8425C21.1763 12.8912 21.1876 12.945 21.1911 13.0008C21.2731 12.8722 21.4103 12.7817 21.5743 12.7817C21.592 12.7817 21.6068 12.7901 21.6245 12.7916C21.616 12.7569 21.6033 12.7244 21.6033 12.6869C21.6033 12.6494 21.616 12.6155 21.6245 12.5809C21.5538 12.7414 21.3947 12.8538 21.2095 12.8538ZM24.8308 25.534C24.6611 25.534 24.5232 25.6719 24.5232 25.8423C24.5232 26.0127 24.6611 26.1506 24.8308 26.1506C25.0012 26.1506 25.1391 26.0127 25.1391 25.8423C25.1383 25.6719 25.0005 25.534 24.8308 25.534Z" fill="white"/>
</svg>
