<svg width="48" height="48" viewBox="0 0 48 48" fill="none" xmlns="http://www.w3.org/2000/svg">
  <g clip-path="url(#clip0_4240_11283)">
    <path
      d="M44.5638 19.6422C45.1005 18.026 45.2861 16.3138 45.1082 14.6201C44.9304 12.9264 44.3931 11.2901 43.5324 9.82061C42.2563 7.59946 40.3078 5.84092 37.9679 4.79853C35.628 3.75613 33.0175 3.48374 30.5128 4.02061C29.0898 2.43774 27.2753 1.25715 25.2517 0.597436C23.228 -0.0622823 21.0664 -0.177909 18.9839 0.262169C16.9014 0.702247 14.9714 1.68254 13.3877 3.10458C11.804 4.52662 10.6223 6.34035 9.96137 8.36361C8.2927 8.70579 6.71628 9.40019 5.33747 10.4004C3.95867 11.4006 2.80922 12.6836 1.96597 14.1636C0.676034 16.3811 0.124727 18.9513 0.391746 21.5027C0.658766 24.0541 1.73028 26.4545 3.45137 28.3568C2.91269 29.9723 2.72521 31.6841 2.90146 33.3779C3.07771 35.0717 3.61363 36.7083 4.47337 38.1782C5.75105 40.4002 7.7012 42.1591 10.0428 43.2015C12.3844 44.2439 14.9964 44.5159 17.5026 43.9784C18.6331 45.2515 20.0222 46.2688 21.5772 46.9623C23.1322 47.6558 24.8172 48.0096 26.5198 48C29.087 48.0024 31.5887 47.1889 33.6635 45.677C35.7384 44.1651 37.2791 42.033 38.0634 39.5884C39.7318 39.2456 41.308 38.551 42.6868 37.5508C44.0655 36.5506 45.2151 35.2679 46.0588 33.7882C47.3335 31.574 47.8753 29.0134 47.6068 26.4727C47.3382 23.932 46.2731 21.541 44.5638 19.6422ZM26.5198 44.8584C24.4172 44.8617 22.3806 44.1248 20.767 42.7768L21.0508 42.616L30.6074 37.0996C30.8452 36.9601 31.0427 36.7611 31.1804 36.5223C31.3181 36.2834 31.3913 36.0127 31.3928 35.737V22.2632L35.4328 24.6004C35.4527 24.6105 35.47 24.6252 35.4832 24.6433C35.4964 24.6614 35.5052 24.6823 35.5088 24.7044V35.8696C35.5037 38.2521 34.555 40.5355 32.8703 42.2201C31.1857 43.9048 28.9022 44.8534 26.5198 44.8584ZM7.19837 36.6076C6.14391 34.7869 5.76531 32.6526 6.12917 30.5802L6.41317 30.7506L15.9792 36.267C16.2159 36.4059 16.4853 36.4791 16.7598 36.4791C17.0342 36.4791 17.3037 36.4059 17.5404 36.267L29.226 29.53V34.1948C29.2249 34.219 29.2183 34.2426 29.2068 34.2639C29.1953 34.2852 29.1792 34.3036 29.1596 34.3178L19.48 39.9004C17.4142 41.0904 14.9607 41.4121 12.658 40.7947C10.3553 40.1773 8.39173 38.6714 7.19837 36.6076ZM4.68157 15.7912C5.74333 13.9587 7.41923 12.5611 9.41257 11.8456V23.2C9.40897 23.4743 9.47906 23.7446 9.61552 23.9826C9.75198 24.2205 9.94981 24.4175 10.1884 24.553L21.8172 31.2616L17.777 33.5986C17.7551 33.6102 17.7307 33.6163 17.706 33.6163C17.6812 33.6163 17.6568 33.6102 17.635 33.5986L7.97437 28.0256C5.91249 26.8304 4.40826 24.8669 3.7911 22.565C3.17393 20.263 3.49413 17.8104 4.68157 15.744V15.7912ZM37.8742 23.5028L26.2076 16.728L30.2384 14.4C30.2602 14.3884 30.2846 14.3823 30.3094 14.3823C30.3341 14.3823 30.3585 14.3884 30.3804 14.4L40.041 19.9826C41.5181 20.8349 42.7222 22.0898 43.5129 23.6008C44.3035 25.1118 44.648 26.8166 44.5062 28.516C44.3643 30.2155 43.7419 31.8395 42.7117 33.1985C41.6815 34.5575 40.2859 35.5954 38.688 36.191V24.8366C38.6796 24.5628 38.6002 24.2958 38.4574 24.0619C38.3147 23.8281 38.1139 23.6355 37.8742 23.5028ZM41.8956 17.4566L41.6116 17.2862L32.0646 11.7226C31.8264 11.5829 31.5553 11.5092 31.2792 11.5092C31.003 11.5092 30.7319 11.5829 30.4938 11.7226L18.818 18.4594V13.7948C18.8155 13.7711 18.8194 13.7471 18.8294 13.7255C18.8394 13.7038 18.8551 13.6853 18.8748 13.6718L28.5354 8.09861C30.016 7.24565 31.7089 6.83189 33.416 6.90573C35.1232 6.97957 36.774 7.53795 38.1754 8.51558C39.5769 9.4932 40.671 10.8496 41.3298 12.4263C41.9887 14.0029 42.185 15.7345 41.8958 17.4186L41.8956 17.4566ZM16.613 25.726L12.573 23.3984C12.5528 23.3862 12.5355 23.3698 12.5223 23.3502C12.5092 23.3306 12.5005 23.3083 12.497 23.285V12.1484C12.4992 10.44 12.9877 8.76744 13.9055 7.32641C14.8232 5.88538 16.1322 4.73539 17.6794 4.01089C19.2267 3.28639 20.9482 3.01733 22.6427 3.23517C24.3372 3.45301 25.9347 4.14873 27.2484 5.24101L26.9644 5.40201L17.408 10.918C17.1701 11.0575 16.9726 11.2565 16.8349 11.4954C16.6972 11.7343 16.6241 12.0049 16.6226 12.2806L16.613 25.726ZM18.8082 20.9952L24.0122 17.9956L29.226 20.9952V26.994L24.0312 29.9934L18.8178 26.994L18.8082 20.9952Z"
      fill="white" />
  </g>
  <defs>
    <clipPath id="clip0_4240_11283">
      <rect width="48" height="48" fill="white" />
    </clipPath>
  </defs>
</svg>