<svg width="48" height="48" viewBox="0 0 48 48" fill="none" xmlns="http://www.w3.org/2000/svg">
<path d="M22.6792 47.9982C19.4325 47.9982 16.7921 45.3578 16.7921 42.1112C16.7921 41.9223 16.8004 41.7319 16.8186 41.5447C16.9031 40.6601 16.5884 39.7855 15.9622 39.1561C15.4007 38.5929 14.6387 38.2798 13.8519 38.2798C13.7608 38.2798 13.668 38.2848 13.5769 38.2931C13.3947 38.3096 13.2092 38.3179 13.0253 38.3179C9.77869 38.3179 7.13831 35.6775 7.13831 32.4309C7.13831 29.1842 9.77869 26.5438 13.0253 26.5438C16.272 26.5438 18.9124 29.1842 18.9124 32.4309C18.9124 32.6197 18.9041 32.8102 18.8859 32.9974C18.8014 33.8819 19.1161 34.7565 19.7423 35.386C20.3038 35.9492 21.0658 36.2622 21.8526 36.2622C21.9437 36.2622 22.0365 36.2573 22.1276 36.249C22.3098 36.2324 22.4953 36.2241 22.6792 36.2241C25.9258 36.2241 28.5662 38.8645 28.5662 42.1112C28.5662 45.3578 25.9258 47.9982 22.6792 47.9982Z" fill="#D4FF87"/>
<path d="M22.6819 48C19.4352 48 16.7949 45.3596 16.7949 42.113C16.7949 38.8663 19.4352 36.2259 22.6819 36.2259C22.8707 36.2259 23.0612 36.2342 23.2484 36.2524C23.3428 36.2607 23.4372 36.2657 23.5317 36.2657C24.3168 36.2657 25.0755 35.9559 25.637 35.3961C26.2665 34.7683 26.5828 33.8937 26.5 33.0091C26.4835 32.8269 26.4752 32.6414 26.4752 32.4575C26.4752 29.2109 29.1156 26.5705 32.3622 26.5705C35.6089 26.5705 38.2493 29.2109 38.2493 32.4575C38.2493 35.7042 35.6089 38.3445 32.3622 38.3445C32.1734 38.3445 31.9829 38.3363 31.7957 38.318C31.7013 38.3098 31.6069 38.3048 31.5125 38.3048C30.7273 38.3048 29.9686 38.6145 29.4071 39.1744C28.7777 39.8022 28.4613 40.6768 28.5441 41.5614C28.5607 41.7436 28.5689 41.9291 28.5689 42.113C28.5689 45.3596 25.9285 48 22.6819 48Z" fill="#D4FF87"/>
<path d="M32.3604 38.3215C29.1138 38.3215 26.4734 35.6811 26.4734 32.4345C26.4734 29.1878 29.1138 26.5474 32.3604 26.5474C32.5493 26.5474 32.7398 26.5557 32.9269 26.5739C33.0214 26.5822 33.1158 26.5872 33.2102 26.5872C33.9953 26.5872 34.754 26.2774 35.3155 25.7176C35.945 25.0898 36.2614 24.2152 36.1786 23.3306C36.162 23.1484 36.1537 22.9629 36.1537 22.779C36.1537 19.5324 38.7941 16.892 42.0407 16.892C45.2874 16.892 47.9278 19.5324 47.9278 22.779C47.9278 26.0257 45.2874 28.666 42.0407 28.666C41.8519 28.666 41.6614 28.6578 41.4742 28.6395C41.3798 28.6313 41.2854 28.6263 41.191 28.6263C40.4058 28.6263 39.6472 28.936 39.0856 29.4959C38.4562 30.1237 38.1398 30.9983 38.2226 31.8829C38.2392 32.0651 38.2475 32.2506 38.2475 32.4345C38.2475 35.6811 35.6071 38.3215 32.3604 38.3215Z" fill="#D4FF87"/>
<path d="M32.3604 38.3445C35.6117 38.3445 38.2475 35.7088 38.2475 32.4575C38.2475 29.2062 35.6117 26.5705 32.3604 26.5705C29.1091 26.5705 26.4734 29.2062 26.4734 32.4575C26.4734 35.7088 29.1091 38.3445 32.3604 38.3445Z" fill="#D4FF87"/>
<path d="M42.0389 28.666C45.2902 28.666 47.9259 26.0303 47.9259 22.779C47.9259 19.5277 45.2902 16.892 42.0389 16.892C38.7876 16.892 36.1519 19.5277 36.1519 22.779C36.1519 26.0303 38.7876 28.666 42.0389 28.666Z" fill="#D4FF87"/>
<path d="M22.682 26.253C24.6032 26.253 26.1606 24.6956 26.1606 22.7745C26.1606 20.8533 24.6032 19.2959 22.682 19.2959C20.7609 19.2959 19.2035 20.8533 19.2035 22.7745C19.2035 24.6956 20.7609 26.253 22.682 26.253Z" fill="#D4FF87"/>
<path d="M22.682 6.95711C24.6032 6.95711 26.1606 5.39971 26.1606 3.47855C26.1606 1.5574 24.6032 0 22.682 0C20.7609 0 19.2035 1.5574 19.2035 3.47855C19.2035 5.39971 20.7609 6.95711 22.682 6.95711Z" fill="#D4FF87"/>
<path d="M13.0255 16.5996C14.9466 16.5996 16.504 15.0422 16.504 13.121C16.504 11.1999 14.9466 9.64249 13.0255 9.64249C11.1043 9.64249 9.54694 11.1999 9.54694 13.121C9.54694 15.0422 11.1043 16.5996 13.0255 16.5996Z" fill="#D4FF87"/>
<path d="M32.3324 16.5996C34.2535 16.5996 35.8109 15.0422 35.8109 13.121C35.8109 11.1999 34.2535 9.64249 32.3324 9.64249C30.4112 9.64249 28.8538 11.1999 28.8538 13.121C28.8538 15.0422 30.4112 16.5996 32.3324 16.5996Z" fill="#D4FF87"/>
<path d="M3.47855 26.253C5.39971 26.253 6.95711 24.6956 6.95711 22.7745C6.95711 20.8533 5.39971 19.2959 3.47855 19.2959C1.5574 19.2959 0 20.8533 0 22.7745C0 24.6956 1.5574 26.253 3.47855 26.253Z" fill="#D4FF87"/>
</svg>
