<svg width="204" height="35" viewBox="0 0 204 35" fill="none" xmlns="http://www.w3.org/2000/svg">
<path d="M54.2283 9.40786V13.1794H48.7835V28H44.8526V13.1794H39.4343V9.40786H54.2283ZM60.5254 14.6933C60.9238 14.6933 61.3488 14.773 61.7737 14.8527V18.2524C61.3222 18.1462 60.8707 18.0665 60.4191 18.0665C58.613 18.0665 57.1522 19.1555 57.1522 21.5724V28H53.4072V14.9589H57.1522V16.4463C57.9225 15.3308 59.0646 14.6933 60.5254 14.6933ZM71.2804 14.9589H75.0254V28H71.2804V26.2736C70.4836 27.5485 69.2618 28.2656 67.7479 28.2656C64.4013 28.2656 62.3827 26.008 62.3827 22.3161V14.9589H66.1277V21.838C66.1277 23.5644 67.137 24.68 68.7041 24.68C70.2446 24.68 71.2804 23.5644 71.2804 21.838V14.9589ZM89.2403 21.0412C89.2403 21.3334 89.2137 21.9443 89.1606 22.3692H79.4661C79.7317 24.0691 81.0332 25.1581 82.7862 25.1581C84.247 25.1581 85.1766 24.5206 85.3891 23.6176H89.0544C88.6294 26.4329 86.1593 28.2656 82.8924 28.2656C79.0412 28.2656 76.0399 25.2643 76.0399 21.4131C76.0399 17.615 79.0146 14.6933 82.8127 14.6933C86.3452 14.6933 89.2403 17.4556 89.2403 21.0412ZM79.6521 19.9788H85.3359C85.2297 18.6508 84.0345 17.7212 82.6534 17.7212C81.2191 17.7212 80.1036 18.4383 79.6521 19.9788ZM90.3475 28V9.40786H95.1284L100.653 22.2099L106.443 9.40786H110.454V28H106.523V17.0838L101.768 28H98.9265L94.2784 17.0838V28H90.3475ZM124.777 21.0412C124.777 21.3334 124.75 21.9443 124.697 22.3692H115.003C115.268 24.0691 116.57 25.1581 118.323 25.1581C119.784 25.1581 120.713 24.5206 120.926 23.6176H124.591C124.166 26.4329 121.696 28.2656 118.429 28.2656C114.578 28.2656 111.577 25.2643 111.577 21.4131C111.577 17.615 114.551 14.6933 118.349 14.6933C121.882 14.6933 124.777 17.4556 124.777 21.0412ZM115.189 19.9788H120.873C120.766 18.6508 119.571 17.7212 118.19 17.7212C116.756 17.7212 115.64 18.4383 115.189 19.9788ZM135.29 9.40786H139.035V28H135.29V26.1408C134.387 27.4954 132.98 28.2656 131.147 28.2656C127.774 28.2656 125.091 25.2112 125.091 21.4662C125.091 17.7212 127.774 14.6933 131.147 14.6933C132.98 14.6933 134.387 15.4636 135.29 16.8182V9.40786ZM132.023 24.68C133.856 24.68 135.29 23.2988 135.29 21.4662C135.29 19.6601 133.856 18.2524 132.023 18.2524C130.217 18.2524 128.756 19.6867 128.756 21.4662C128.756 23.2723 130.217 24.68 132.023 24.68ZM142.449 8.63761C143.698 8.63761 144.733 9.67346 144.733 10.8952C144.733 12.1436 143.698 13.1794 142.449 13.1794C141.201 13.1794 140.165 12.1436 140.165 10.8952C140.165 9.67346 141.201 8.63761 142.449 8.63761ZM140.59 14.9589H144.335V28H140.59V14.9589ZM155.576 14.9589H159.321V28H155.576V26.1408C154.673 27.4954 153.265 28.2656 151.432 28.2656C148.059 28.2656 145.377 25.2112 145.377 21.4662C145.377 17.7212 148.059 14.6933 151.432 14.6933C153.265 14.6933 154.673 15.4636 155.576 16.8182V14.9589ZM152.309 24.68C154.141 24.68 155.576 23.2988 155.576 21.4662C155.576 19.6601 154.141 18.2524 152.309 18.2524C150.503 18.2524 149.042 19.6867 149.042 21.4662C149.042 23.2723 150.503 24.68 152.309 24.68ZM163.319 28.2656C161.964 28.2656 160.902 27.2032 160.902 25.8752C160.902 24.5472 161.964 23.5113 163.319 23.5113C164.7 23.5113 165.763 24.5472 165.763 25.8752C165.763 27.2032 164.7 28.2656 163.319 28.2656ZM173.343 14.6933C177.167 14.6933 180.115 17.615 180.115 21.4928C180.115 25.3705 177.167 28.2656 173.343 28.2656C169.491 28.2656 166.57 25.3705 166.57 21.4928C166.57 17.615 169.491 14.6933 173.343 14.6933ZM173.343 18.279C171.563 18.279 170.235 19.6335 170.235 21.4928C170.235 23.2988 171.563 24.68 173.343 24.68C175.096 24.68 176.45 23.2988 176.45 21.4928C176.45 19.6335 175.096 18.279 173.343 18.279ZM188.279 14.6933C188.677 14.6933 189.102 14.773 189.527 14.8527V18.2524C189.076 18.1462 188.624 18.0665 188.173 18.0665C186.367 18.0665 184.906 19.1555 184.906 21.5724V28H181.161V14.9589H184.906V16.4463C185.676 15.3308 186.818 14.6933 188.279 14.6933ZM198.948 14.9324H202.693V27.4422C202.693 31.1341 199.718 33.3652 195.946 33.3652C193.529 33.3652 189.386 32.4887 189.147 28.5046H192.892C192.998 29.6733 194.326 30.2576 195.814 30.2576C197.434 30.2576 198.948 29.1952 198.948 27.6016V25.7158C198.045 27.0438 196.637 27.761 194.804 27.761C191.431 27.761 188.749 24.8128 188.749 21.2271C188.749 17.615 191.431 14.6933 194.804 14.6933C196.637 14.6933 198.045 15.4105 198.948 16.7385V14.9324ZM195.681 24.3081C197.513 24.3081 198.948 22.9801 198.948 21.2271C198.948 19.4742 197.513 18.1196 195.681 18.1196C193.875 18.1196 192.414 19.5007 192.414 21.2271C192.414 22.9536 193.875 24.3081 195.681 24.3081Z" fill="white"/>
<path d="M16.1422 34.0561C13.9745 34.0561 12.2116 32.2932 12.2116 30.1255C12.2116 29.9994 12.2172 29.8722 12.2293 29.7472C12.2857 29.1567 12.0756 28.5727 11.6575 28.1524C11.2826 27.7764 10.7739 27.5674 10.2485 27.5674C10.1877 27.5674 10.1258 27.5707 10.0649 27.5762C9.94329 27.5873 9.81942 27.5928 9.69666 27.5928C7.52896 27.5928 5.76605 25.8299 5.76605 23.6622C5.76605 21.4945 7.52896 19.7316 9.69666 19.7316C11.8644 19.7316 13.6273 21.4945 13.6273 23.6622C13.6273 23.7883 13.6217 23.9155 13.6096 24.0404C13.5532 24.631 13.7633 25.215 14.1814 25.6353C14.5563 26.0113 15.065 26.2203 15.5904 26.2203C15.6512 26.2203 15.7131 26.217 15.774 26.2115C15.8956 26.2004 16.0195 26.1949 16.1422 26.1949C18.3099 26.1949 20.0728 27.9578 20.0728 30.1255C20.0728 32.2932 18.3099 34.0561 16.1422 34.0561Z" fill="#D4FF87"/>
<path d="M16.144 34.0573C13.9764 34.0573 12.2134 32.2944 12.2134 30.1267C12.2134 27.959 13.9764 26.1961 16.144 26.1961C16.2701 26.1961 16.3973 26.2016 16.5223 26.2138C16.5853 26.2193 16.6484 26.2226 16.7114 26.2226C17.2356 26.2226 17.7422 26.0158 18.1171 25.642C18.5374 25.2228 18.7486 24.6389 18.6933 24.0483C18.6822 23.9266 18.6767 23.8027 18.6767 23.68C18.6767 21.5123 20.4396 19.7494 22.6073 19.7494C24.775 19.7494 26.5379 21.5123 26.5379 23.68C26.5379 25.8477 24.775 27.6106 22.6073 27.6106C22.4812 27.6106 22.3541 27.6051 22.2291 27.5929C22.166 27.5874 22.103 27.584 22.04 27.584C21.5157 27.584 21.0092 27.7909 20.6343 28.1647C20.214 28.5838 20.0028 29.1678 20.0581 29.7584C20.0691 29.88 20.0747 30.0039 20.0747 30.1267C20.0747 32.2944 18.3117 34.0573 16.144 34.0573Z" fill="#D4FF87"/>
<path d="M22.6061 27.5952C20.4384 27.5952 18.6755 25.8323 18.6755 23.6646C18.6755 21.4969 20.4384 19.734 22.6061 19.734C22.7322 19.734 22.8594 19.7395 22.9844 19.7517C23.0474 19.7572 23.1105 19.7605 23.1735 19.7605C23.6977 19.7605 24.2043 19.5537 24.5792 19.1799C24.9995 18.7607 25.2107 18.1768 25.1554 17.5862C25.1443 17.4645 25.1388 17.3407 25.1388 17.2179C25.1388 15.0502 26.9017 13.2873 29.0694 13.2873C31.2371 13.2873 33 15.0502 33 17.2179C33 19.3856 31.2371 21.1485 29.0694 21.1485C28.9433 21.1485 28.8162 21.143 28.6912 21.1308C28.6281 21.1253 28.5651 21.122 28.5021 21.122C27.9778 21.122 27.4713 21.3288 27.0964 21.7026C26.6761 22.1218 26.4649 22.7057 26.5202 23.2963C26.5312 23.418 26.5368 23.5418 26.5368 23.6646C26.5368 25.8323 24.7738 27.5952 22.6061 27.5952Z" fill="#D4FF87"/>
<path d="M22.6061 27.6106C24.777 27.6106 26.5368 25.8508 26.5368 23.68C26.5368 21.5092 24.777 19.7494 22.6061 19.7494C20.4353 19.7494 18.6755 21.5092 18.6755 23.68C18.6755 25.8508 20.4353 27.6106 22.6061 27.6106Z" fill="#D4FF87"/>
<path d="M29.0682 21.1485C31.239 21.1485 32.9988 19.3887 32.9988 17.2179C32.9988 15.0471 31.239 13.2873 29.0682 13.2873C26.8974 13.2873 25.1376 15.0471 25.1376 17.2179C25.1376 19.3887 26.8974 21.1485 29.0682 21.1485Z" fill="#D4FF87"/>
<path d="M16.1442 19.5374C17.4269 19.5374 18.4667 18.4976 18.4667 17.2149C18.4667 15.9322 17.4269 14.8924 16.1442 14.8924C14.8615 14.8924 13.8217 15.9322 13.8217 17.2149C13.8217 18.4976 14.8615 19.5374 16.1442 19.5374Z" fill="#D4FF87"/>
<path d="M16.1442 6.6541C17.4269 6.6541 18.4667 5.61426 18.4667 4.33156C18.4667 3.04887 17.4269 2.00903 16.1442 2.00903C14.8615 2.00903 13.8217 3.04887 13.8217 4.33156C13.8217 5.61426 14.8615 6.6541 16.1442 6.6541Z" fill="#D4FF87"/>
<path d="M9.69674 13.0921C10.9794 13.0921 12.0193 12.0523 12.0193 10.7696C12.0193 9.48687 10.9794 8.44704 9.69674 8.44704C8.41404 8.44704 7.37421 9.48687 7.37421 10.7696C7.37421 12.0523 8.41404 13.0921 9.69674 13.0921Z" fill="#D4FF87"/>
<path d="M22.5874 13.0921C23.8701 13.0921 24.91 12.0523 24.91 10.7696C24.91 9.48687 23.8701 8.44704 22.5874 8.44704C21.3047 8.44704 20.2649 9.48687 20.2649 10.7696C20.2649 12.0523 21.3047 13.0921 22.5874 13.0921Z" fill="#D4FF87"/>
<path d="M3.32253 19.5374C4.60523 19.5374 5.64506 18.4976 5.64506 17.2149C5.64506 15.9322 4.60523 14.8924 3.32253 14.8924C2.03983 14.8924 1 15.9322 1 17.2149C1 18.4976 2.03983 19.5374 3.32253 19.5374Z" fill="#D4FF87"/>
</svg>
