<svg width="32" height="33" viewBox="0 0 32 33" fill="none" xmlns="http://www.w3.org/2000/svg">
<path d="M15.1422 32.0471C12.9745 32.0471 11.2116 30.2841 11.2116 28.1164C11.2116 27.9904 11.2172 27.8632 11.2293 27.7382C11.2857 27.1476 11.0756 26.5637 10.6575 26.1434C10.2826 25.7674 9.77387 25.5583 9.24854 25.5583C9.18771 25.5583 9.12578 25.5617 9.06495 25.5672C8.94329 25.5782 8.81942 25.5838 8.69666 25.5838C6.52896 25.5838 4.76605 23.8209 4.76605 21.6532C4.76605 19.4855 6.52896 17.7226 8.69666 17.7226C10.8644 17.7226 12.6273 19.4855 12.6273 21.6532C12.6273 21.7793 12.6217 21.9064 12.6096 22.0314C12.5532 22.622 12.7633 23.206 13.1814 23.6262C13.5563 24.0022 14.065 24.2113 14.5904 24.2113C14.6512 24.2113 14.7131 24.208 14.774 24.2024C14.8956 24.1914 15.0195 24.1858 15.1422 24.1858C17.3099 24.1858 19.0728 25.9487 19.0728 28.1164C19.0728 30.2841 17.3099 32.0471 15.1422 32.0471Z" fill="#D4FF87"/>
<path d="M15.144 32.0482C12.9764 32.0482 11.2134 30.2853 11.2134 28.1176C11.2134 25.9499 12.9764 24.187 15.144 24.187C15.2701 24.187 15.3973 24.1925 15.5223 24.2047C15.5853 24.2102 15.6484 24.2136 15.7114 24.2136C16.2356 24.2136 16.7422 24.0067 17.1171 23.6329C17.5374 23.2138 17.7486 22.6298 17.6933 22.0392C17.6822 21.9176 17.6767 21.7937 17.6767 21.6709C17.6767 19.5032 19.4396 17.7403 21.6073 17.7403C23.775 17.7403 25.5379 19.5032 25.5379 21.6709C25.5379 23.8386 23.775 25.6015 21.6073 25.6015C21.4812 25.6015 21.3541 25.596 21.2291 25.5838C21.166 25.5783 21.103 25.575 21.04 25.575C20.5157 25.575 20.0092 25.7818 19.6343 26.1556C19.214 26.5748 19.0028 27.1587 19.0581 27.7493C19.0691 27.871 19.0747 27.9949 19.0747 28.1176C19.0747 30.2853 17.3117 32.0482 15.144 32.0482Z" fill="#D4FF87"/>
<path d="M21.6061 25.5862C19.4384 25.5862 17.6755 23.8233 17.6755 21.6556C17.6755 19.4879 19.4384 17.725 21.6061 17.725C21.7322 17.725 21.8594 17.7305 21.9844 17.7427C22.0474 17.7482 22.1105 17.7515 22.1735 17.7515C22.6977 17.7515 23.2043 17.5447 23.5792 17.1709C23.9995 16.7517 24.2107 16.1678 24.1554 15.5772C24.1443 15.4555 24.1388 15.3317 24.1388 15.2089C24.1388 13.0412 25.9017 11.2783 28.0694 11.2783C30.2371 11.2783 32 13.0412 32 15.2089C32 17.3766 30.2371 19.1395 28.0694 19.1395C27.9433 19.1395 27.8162 19.134 27.6912 19.1218C27.6281 19.1163 27.5651 19.113 27.5021 19.113C26.9778 19.113 26.4713 19.3198 26.0964 19.6936C25.6761 20.1128 25.4649 20.6967 25.5202 21.2873C25.5312 21.409 25.5368 21.5328 25.5368 21.6556C25.5368 23.8233 23.7738 25.5862 21.6061 25.5862Z" fill="#D4FF87"/>
<path d="M21.6061 25.6015C23.777 25.6015 25.5368 23.8417 25.5368 21.6709C25.5368 19.5001 23.777 17.7403 21.6061 17.7403C19.4353 17.7403 17.6755 19.5001 17.6755 21.6709C17.6755 23.8417 19.4353 25.6015 21.6061 25.6015Z" fill="#D4FF87"/>
<path d="M28.0682 19.1395C30.239 19.1395 31.9988 17.3797 31.9988 15.2089C31.9988 13.0381 30.239 11.2783 28.0682 11.2783C25.8974 11.2783 24.1376 13.0381 24.1376 15.2089C24.1376 17.3797 25.8974 19.1395 28.0682 19.1395Z" fill="#D4FF87"/>
<path d="M15.1442 17.5284C16.4269 17.5284 17.4667 16.4886 17.4667 15.2059C17.4667 13.9232 16.4269 12.8833 15.1442 12.8833C13.8615 12.8833 12.8217 13.9232 12.8217 15.2059C12.8217 16.4886 13.8615 17.5284 15.1442 17.5284Z" fill="#D4FF87"/>
<path d="M15.1442 4.64506C16.4269 4.64506 17.4667 3.60523 17.4667 2.32253C17.4667 1.03983 16.4269 0 15.1442 0C13.8615 0 12.8217 1.03983 12.8217 2.32253C12.8217 3.60523 13.8615 4.64506 15.1442 4.64506Z" fill="#D4FF87"/>
<path d="M8.69674 11.0831C9.97944 11.0831 11.0193 10.0432 11.0193 8.76055C11.0193 7.47785 9.97944 6.43802 8.69674 6.43802C7.41404 6.43802 6.37421 7.47785 6.37421 8.76055C6.37421 10.0432 7.41404 11.0831 8.69674 11.0831Z" fill="#D4FF87"/>
<path d="M21.5874 11.0831C22.8701 11.0831 23.91 10.0432 23.91 8.76055C23.91 7.47785 22.8701 6.43802 21.5874 6.43802C20.3047 6.43802 19.2649 7.47785 19.2649 8.76055C19.2649 10.0432 20.3047 11.0831 21.5874 11.0831Z" fill="#D4FF87"/>
<path d="M2.32253 17.5284C3.60523 17.5284 4.64506 16.4886 4.64506 15.2059C4.64506 13.9232 3.60523 12.8833 2.32253 12.8833C1.03983 12.8833 0 13.9232 0 15.2059C0 16.4886 1.03983 17.5284 2.32253 17.5284Z" fill="#D4FF87"/>
</svg>
