<svg width="24" height="24" viewBox="0 0 24 24" fill="none" xmlns="http://www.w3.org/2000/svg">
<path d="M11.3396 23.9991C9.71625 23.9991 8.39606 22.6789 8.39606 21.0556C8.39606 20.9612 8.4002 20.8659 8.40931 20.7723C8.45155 20.3301 8.29419 19.8928 7.98112 19.578C7.70035 19.2964 7.31937 19.1399 6.92596 19.1399C6.8804 19.1399 6.83402 19.1424 6.78847 19.1465C6.69737 19.1548 6.60461 19.159 6.51267 19.159C4.88935 19.159 3.56915 17.8388 3.56915 16.2154C3.56915 14.5921 4.88935 13.2719 6.51267 13.2719C8.136 13.2719 9.45619 14.5921 9.45619 16.2154C9.45619 16.3098 9.45205 16.4051 9.44294 16.4987C9.4007 16.941 9.55806 17.3783 9.87113 17.693C10.1519 17.9746 10.5329 18.1311 10.9263 18.1311C10.9718 18.1311 11.0182 18.1286 11.0638 18.1245C11.1549 18.1162 11.2476 18.1121 11.3396 18.1121C12.9629 18.1121 14.2831 19.4323 14.2831 21.0556C14.2831 22.6789 12.9629 23.9991 11.3396 23.9991Z" fill="#D4FF87"/>
<path d="M11.3409 24C9.71759 24 8.3974 22.6798 8.3974 21.0565C8.3974 19.4331 9.71759 18.113 11.3409 18.113C11.4353 18.113 11.5306 18.1171 11.6242 18.1262C11.6714 18.1303 11.7186 18.1328 11.7658 18.1328C12.1584 18.1328 12.5377 17.978 12.8185 17.698C13.1332 17.3841 13.2914 16.9468 13.25 16.5045C13.2417 16.4134 13.2376 16.3207 13.2376 16.2287C13.2376 14.6054 14.5578 13.2852 16.1811 13.2852C17.8044 13.2852 19.1246 14.6054 19.1246 16.2287C19.1246 17.8521 17.8044 19.1723 16.1811 19.1723C16.0867 19.1723 15.9914 19.1681 15.8978 19.159C15.8506 19.1549 15.8034 19.1524 15.7562 19.1524C15.3636 19.1524 14.9843 19.3073 14.7035 19.5872C14.3888 19.9011 14.2306 20.3384 14.272 20.7807C14.2803 20.8718 14.2844 20.9645 14.2844 21.0565C14.2844 22.6798 12.9642 24 11.3409 24Z" fill="#D4FF87"/>
<path d="M16.1802 19.1608C14.5569 19.1608 13.2367 17.8406 13.2367 16.2172C13.2367 14.5939 14.5569 13.2737 16.1802 13.2737C16.2746 13.2737 16.3699 13.2779 16.4635 13.287C16.5107 13.2911 16.5579 13.2936 16.6051 13.2936C16.9977 13.2936 17.377 13.1387 17.6578 12.8588C17.9725 12.5449 18.1307 12.1076 18.0893 11.6653C18.081 11.5742 18.0769 11.4814 18.0769 11.3895C18.0769 9.76618 19.397 8.44598 21.0204 8.44598C22.6437 8.44598 23.9639 9.76618 23.9639 11.3895C23.9639 13.0128 22.6437 14.333 21.0204 14.333C20.926 14.333 20.8307 14.3289 20.7371 14.3198C20.6899 14.3156 20.6427 14.3131 20.5955 14.3131C20.2029 14.3131 19.8236 14.468 19.5428 14.748C19.2281 15.0619 19.0699 15.4992 19.1113 15.9414C19.1196 16.0325 19.1237 16.1253 19.1237 16.2172C19.1237 17.8406 17.8035 19.1608 16.1802 19.1608Z" fill="#D4FF87"/>
<path d="M16.1802 19.1723C17.8059 19.1723 19.1237 17.8544 19.1237 16.2287C19.1237 14.6031 17.8059 13.2852 16.1802 13.2852C14.5546 13.2852 13.2367 14.6031 13.2367 16.2287C13.2367 17.8544 14.5546 19.1723 16.1802 19.1723Z" fill="#D4FF87"/>
<path d="M21.0194 14.333C22.6451 14.333 23.963 13.0152 23.963 11.3895C23.963 9.76384 22.6451 8.44598 21.0194 8.44598C19.3938 8.44598 18.0759 9.76384 18.0759 11.3895C18.0759 13.0152 19.3938 14.333 21.0194 14.333Z" fill="#D4FF87"/>
<path d="M11.341 13.1265C12.3016 13.1265 13.0803 12.3478 13.0803 11.3872C13.0803 10.4267 12.3016 9.64795 11.341 9.64795C10.3804 9.64795 9.60175 10.4267 9.60175 11.3872C9.60175 12.3478 10.3804 13.1265 11.341 13.1265Z" fill="#D4FF87"/>
<path d="M11.341 3.47855C12.3016 3.47855 13.0803 2.69985 13.0803 1.73928C13.0803 0.778701 12.3016 0 11.341 0C10.3804 0 9.60175 0.778701 9.60175 1.73928C9.60175 2.69985 10.3804 3.47855 11.341 3.47855Z" fill="#D4FF87"/>
<path d="M6.51278 8.29978C7.47335 8.29978 8.25205 7.52108 8.25205 6.5605C8.25205 5.59993 7.47335 4.82123 6.51278 4.82123C5.5522 4.82123 4.7735 5.59993 4.7735 6.5605C4.7735 7.52108 5.5522 8.29978 6.51278 8.29978Z" fill="#D4FF87"/>
<path d="M16.1662 8.29978C17.1268 8.29978 17.9055 7.52108 17.9055 6.5605C17.9055 5.59993 17.1268 4.82123 16.1662 4.82123C15.2056 4.82123 14.4269 5.59993 14.4269 6.5605C14.4269 7.52108 15.2056 8.29978 16.1662 8.29978Z" fill="#D4FF87"/>
<path d="M1.73928 13.1265C2.69985 13.1265 3.47855 12.3478 3.47855 11.3872C3.47855 10.4267 2.69985 9.64795 1.73928 9.64795C0.778701 9.64795 0 10.4267 0 11.3872C0 12.3478 0.778701 13.1265 1.73928 13.1265Z" fill="#D4FF87"/>
</svg>
