<svg width="97" height="97" viewBox="0 0 97 97" fill="none" xmlns="http://www.w3.org/2000/svg">
<path d="M46.4267 96.9965C39.9236 96.9965 34.6348 91.7157 34.6348 85.2224C34.6348 84.8447 34.6514 84.4637 34.6879 84.0894C34.8571 82.3203 34.2267 80.5711 32.9726 79.3122C31.8478 78.1858 30.3216 77.5596 28.7456 77.5596C28.5631 77.5596 28.3773 77.5696 28.1948 77.5861C27.8298 77.6193 27.4582 77.6358 27.0899 77.6358C20.5868 77.6358 15.2981 72.3551 15.2981 65.8618C15.2981 59.3685 20.5868 54.0877 27.0899 54.0877C33.593 54.0877 38.8817 59.3685 38.8817 65.8618C38.8817 66.2394 38.8652 66.6204 38.8287 66.9948C38.6594 68.7639 39.2898 70.5131 40.544 71.772C41.6688 72.8984 43.195 73.5245 44.771 73.5245C44.9535 73.5245 45.1393 73.5146 45.3218 73.498C45.6868 73.4649 46.0584 73.4483 46.4267 73.4483C52.9297 73.4483 58.2185 78.7291 58.2185 85.2224C58.2185 91.7157 52.9297 96.9965 46.4267 96.9965Z" fill="#D4FF87"/>
<path d="M46.4322 97C39.9291 97 34.6404 91.7192 34.6404 85.2259C34.6404 78.7326 39.9291 73.4518 46.4322 73.4518C46.8104 73.4518 47.192 73.4684 47.5669 73.5049C47.756 73.5214 47.9451 73.5314 48.1343 73.5314C49.7069 73.5314 51.2265 72.9118 52.3513 71.7921C53.6121 70.5365 54.2458 68.7873 54.0799 67.0182C54.0468 66.6538 54.0302 66.2827 54.0302 65.915C54.0302 59.4217 59.3189 54.1409 65.822 54.1409C72.3251 54.1409 77.6138 59.4217 77.6138 65.915C77.6138 72.4083 72.3251 77.6891 65.822 77.6891C65.4437 77.6891 65.0622 77.6725 64.6873 77.6361C64.4981 77.6195 64.309 77.6095 64.1199 77.6095C62.5472 77.6095 61.0276 78.2291 59.9029 79.3488C58.6421 80.6044 58.0083 82.3536 58.1742 84.1227C58.2074 84.4871 58.224 84.8582 58.224 85.2259C58.224 91.7192 52.9353 97 46.4322 97Z" fill="#D4FF87"/>
<path d="M65.8183 77.643C59.3153 77.643 54.0265 72.3622 54.0265 65.8689C54.0265 59.3756 59.3153 54.0949 65.8183 54.0949C66.1966 54.0949 66.5781 54.1114 66.9531 54.1479C67.1422 54.1644 67.3313 54.1744 67.5204 54.1744C69.0931 54.1744 70.6127 53.5548 71.7375 52.4351C72.9983 51.1795 73.632 49.4303 73.4661 47.6612C73.4329 47.2968 73.4163 46.9257 73.4163 46.558C73.4163 40.0647 78.7051 34.7839 85.2082 34.7839C91.7112 34.7839 97 40.0647 97 46.558C97 53.0513 91.7112 58.3321 85.2082 58.3321C84.8299 58.3321 84.4484 58.3155 84.0734 58.2791C83.8843 58.2625 83.6952 58.2526 83.5061 58.2526C81.9334 58.2526 80.4138 58.8721 79.289 59.9918C78.0282 61.2474 77.3945 62.9966 77.5604 64.7657C77.5936 65.1302 77.6102 65.5012 77.6102 65.8689C77.6102 72.3622 72.3214 77.643 65.8183 77.643Z" fill="#D4FF87"/>
<path d="M65.8183 77.6891C72.3308 77.6891 77.6102 72.4176 77.6102 65.915C77.6102 59.4123 72.3308 54.1409 65.8183 54.1409C59.3059 54.1409 54.0265 59.4123 54.0265 65.915C54.0265 72.4176 59.3059 77.6891 65.8183 77.6891Z" fill="#D4FF87"/>
<path d="M85.2045 58.3321C91.717 58.3321 96.9963 53.0606 96.9963 46.558C96.9963 40.0553 91.717 34.7839 85.2045 34.7839C78.6921 34.7839 73.4127 40.0553 73.4127 46.558C73.4127 53.0606 78.6921 58.3321 85.2045 58.3321Z" fill="#D4FF87"/>
<path d="M46.4325 53.5061C50.2806 53.5061 53.4001 50.3913 53.4001 46.549C53.4001 42.7067 50.2806 39.5919 46.4325 39.5919C42.5844 39.5919 39.4649 42.7067 39.4649 46.549C39.4649 50.3913 42.5844 53.5061 46.4325 53.5061Z" fill="#D4FF87"/>
<path d="M46.4325 14.9142C50.2806 14.9142 53.4001 11.7994 53.4001 7.95711C53.4001 4.1148 50.2806 1 46.4325 1C42.5844 1 39.4649 4.1148 39.4649 7.95711C39.4649 11.7994 42.5844 14.9142 46.4325 14.9142Z" fill="#D4FF87"/>
<path d="M27.0903 34.1992C30.9384 34.1992 34.0579 31.0844 34.0579 27.2421C34.0579 23.3998 30.9384 20.285 27.0903 20.285C23.2422 20.285 20.1227 23.3998 20.1227 27.2421C20.1227 31.0844 23.2422 34.1992 27.0903 34.1992Z" fill="#D4FF87"/>
<path d="M65.7622 34.1992C69.6103 34.1992 72.7298 31.0844 72.7298 27.2421C72.7298 23.3998 69.6103 20.285 65.7622 20.285C61.9141 20.285 58.7946 23.3998 58.7946 27.2421C58.7946 31.0844 61.9141 34.1992 65.7622 34.1992Z" fill="#D4FF87"/>
<path d="M7.96759 53.5061C11.8157 53.5061 14.9352 50.3913 14.9352 46.549C14.9352 42.7067 11.8157 39.5919 7.96759 39.5919C4.1195 39.5919 1 42.7067 1 46.549C1 50.3913 4.1195 53.5061 7.96759 53.5061Z" fill="#D4FF87"/>
</svg>
