<svg width="399" height="68" viewBox="0 0 399 68" fill="none" xmlns="http://www.w3.org/2000/svg">
<path d="M106.064 17.636V25.0127H95.4147V54H87.7263V25.0127H77.1288V17.636H106.064ZM118.38 27.9737C119.16 27.9737 119.991 28.1296 120.822 28.2854V34.9349C119.939 34.7271 119.056 34.5712 118.173 34.5712C114.64 34.5712 111.783 36.7011 111.783 41.4284V54H104.458V28.4932H111.783V31.4023C113.29 29.2205 115.523 27.9737 118.38 27.9737ZM139.416 28.4932H146.741V54H139.416V50.6233C137.858 53.1169 135.468 54.5195 132.507 54.5195C125.961 54.5195 122.013 50.1039 122.013 42.883V28.4932H129.338V41.9479C129.338 45.3246 131.312 47.5064 134.377 47.5064C137.39 47.5064 139.416 45.3246 139.416 41.9479V28.4932ZM174.543 40.3895C174.543 40.9609 174.492 42.1557 174.388 42.9869H155.426C155.946 46.3116 158.491 48.4415 161.92 48.4415C164.777 48.4415 166.595 47.1947 167.011 45.4285H174.18C173.349 50.935 168.517 54.5195 162.128 54.5195C154.595 54.5195 148.725 48.6493 148.725 41.1167C148.725 33.6881 154.543 27.9737 161.972 27.9737C168.881 27.9737 174.543 33.3764 174.543 40.3895ZM155.79 38.3115H166.907C166.699 35.7141 164.362 33.8959 161.66 33.8959C158.855 33.8959 156.673 35.2985 155.79 38.3115ZM176.709 54V17.636H186.06L196.865 42.6752L208.19 17.636H216.034V54H208.346V32.6491L199.047 54H193.488L184.397 32.6491V54H176.709ZM244.049 40.3895C244.049 40.9609 243.997 42.1557 243.893 42.9869H224.932C225.451 46.3116 227.997 48.4415 231.426 48.4415C234.283 48.4415 236.101 47.1947 236.517 45.4285H243.685C242.854 50.935 238.023 54.5195 231.633 54.5195C224.101 54.5195 218.231 48.6493 218.231 41.1167C218.231 33.6881 224.049 27.9737 231.478 27.9737C238.387 27.9737 244.049 33.3764 244.049 40.3895ZM225.296 38.3115H236.413C236.205 35.7141 233.867 33.8959 231.166 33.8959C228.361 33.8959 226.179 35.2985 225.296 38.3115ZM264.612 17.636H271.937V54H264.612V50.3636C262.846 53.013 260.092 54.5195 256.508 54.5195C249.91 54.5195 244.664 48.5454 244.664 41.2206C244.664 33.8959 249.91 27.9737 256.508 27.9737C260.092 27.9737 262.846 29.4802 264.612 32.1296V17.636ZM258.222 47.5064C261.807 47.5064 264.612 44.8051 264.612 41.2206C264.612 37.6881 261.807 34.9349 258.222 34.9349C254.69 34.9349 251.832 37.7401 251.832 41.2206C251.832 44.7531 254.69 47.5064 258.222 47.5064ZM278.614 16.1294C281.056 16.1294 283.082 18.1554 283.082 20.5451C283.082 22.9867 281.056 25.0127 278.614 25.0127C276.172 25.0127 274.146 22.9867 274.146 20.5451C274.146 18.1554 276.172 16.1294 278.614 16.1294ZM274.978 28.4932H282.302V54H274.978V28.4932ZM304.288 28.4932H311.612V54H304.288V50.3636C302.521 53.013 299.768 54.5195 296.184 54.5195C289.586 54.5195 284.339 48.5454 284.339 41.2206C284.339 33.8959 289.586 27.9737 296.184 27.9737C299.768 27.9737 302.521 29.4802 304.288 32.1296V28.4932ZM297.898 47.5064C301.482 47.5064 304.288 44.8051 304.288 41.2206C304.288 37.6881 301.482 34.9349 297.898 34.9349C294.365 34.9349 291.508 37.7401 291.508 41.2206C291.508 44.7531 294.365 47.5064 297.898 47.5064ZM319.433 54.5195C316.783 54.5195 314.705 52.4415 314.705 49.8441C314.705 47.2467 316.783 45.2207 319.433 45.2207C322.134 45.2207 324.212 47.2467 324.212 49.8441C324.212 52.4415 322.134 54.5195 319.433 54.5195ZM339.038 27.9737C346.518 27.9737 352.284 33.6881 352.284 41.2726C352.284 48.8571 346.518 54.5195 339.038 54.5195C331.505 54.5195 325.791 48.8571 325.791 41.2726C325.791 33.6881 331.505 27.9737 339.038 27.9737ZM339.038 34.9868C335.557 34.9868 332.96 37.6362 332.96 41.2726C332.96 44.8051 335.557 47.5064 339.038 47.5064C342.466 47.5064 345.116 44.8051 345.116 41.2726C345.116 37.6362 342.466 34.9868 339.038 34.9868ZM368.251 27.9737C369.031 27.9737 369.862 28.1296 370.693 28.2854V34.9349C369.81 34.7271 368.927 34.5712 368.044 34.5712C364.511 34.5712 361.654 36.7011 361.654 41.4284V54H354.329V28.4932H361.654V31.4023C363.16 29.2205 365.394 27.9737 368.251 27.9737ZM389.118 28.4413H396.443V52.9091C396.443 60.1299 390.625 64.4936 383.248 64.4936C378.521 64.4936 370.417 62.7793 369.949 54.987H377.274C377.482 57.2728 380.079 58.4156 382.988 58.4156C386.157 58.4156 389.118 56.3377 389.118 53.2208V49.5324C387.352 52.1298 384.599 53.5325 381.014 53.5325C374.417 53.5325 369.17 47.7662 369.17 40.7531C369.17 33.6881 374.417 27.9737 381.014 27.9737C384.599 27.9737 387.352 29.3763 389.118 31.9738V28.4413ZM382.728 46.7791C386.313 46.7791 389.118 44.1817 389.118 40.7531C389.118 37.3245 386.313 34.6751 382.728 34.6751C379.196 34.6751 376.339 37.3764 376.339 40.7531C376.339 44.1298 379.196 46.7791 382.728 46.7791Z" fill="white"/>
<path d="M31.2389 66.991C26.91 66.991 23.3895 63.4704 23.3895 59.1416C23.3895 58.8898 23.4005 58.6358 23.4248 58.3862C23.5374 57.2068 23.1178 56.0407 22.283 55.2014C21.5342 54.4505 20.5183 54.0331 19.4692 54.0331C19.3477 54.0331 19.224 54.0397 19.1026 54.0507C18.8596 54.0728 18.6123 54.0839 18.3671 54.0839C14.0382 54.0839 10.5177 50.5634 10.5177 46.2345C10.5177 41.9056 14.0382 38.3851 18.3671 38.3851C22.696 38.3851 26.2165 41.9056 26.2165 46.2345C26.2165 46.4863 26.2054 46.7403 26.1811 46.9898C26.0685 48.1692 26.4881 49.3354 27.323 50.1746C28.0717 50.9256 29.0877 51.343 30.1368 51.343C30.2582 51.343 30.3819 51.3364 30.5034 51.3253C30.7463 51.3032 30.9937 51.2922 31.2389 51.2922C35.5677 51.2922 39.0882 54.8127 39.0882 59.1416C39.0882 63.4704 35.5677 66.991 31.2389 66.991Z" fill="#D4FF87"/>
<path d="M31.2425 66.9933C26.9137 66.9933 23.3931 63.4728 23.3931 59.144C23.3931 54.8151 26.9137 51.2946 31.2425 51.2946C31.4943 51.2946 31.7483 51.3056 31.9979 51.3299C32.1238 51.341 32.2497 51.3476 32.3755 51.3476C33.4224 51.3476 34.434 50.9346 35.1827 50.1881C36.022 49.351 36.4438 48.1849 36.3334 47.0055C36.3113 46.7625 36.3002 46.5151 36.3002 46.27C36.3002 41.9411 39.8207 38.4206 44.1496 38.4206C48.4785 38.4206 51.999 41.9411 51.999 46.27C51.999 50.5989 48.4785 54.1194 44.1496 54.1194C43.8978 54.1194 43.6438 54.1083 43.3943 54.084C43.2684 54.073 43.1425 54.0664 43.0166 54.0664C41.9697 54.0664 40.9582 54.4794 40.2095 55.2259C39.3702 56.063 38.9484 57.2291 39.0588 58.4085C39.0809 58.6514 39.0919 58.8988 39.0919 59.144C39.0919 63.4728 35.5714 66.9933 31.2425 66.9933Z" fill="#D4FF87"/>
<path d="M44.1472 54.0887C39.8183 54.0887 36.2978 50.5682 36.2978 46.2393C36.2978 41.9104 39.8183 38.3899 44.1472 38.3899C44.399 38.3899 44.653 38.401 44.9025 38.4252C45.0284 38.4363 45.1543 38.4429 45.2802 38.4429C46.3271 38.4429 47.3386 38.0299 48.0873 37.2834C48.9266 36.4463 49.3485 35.2802 49.238 34.1008C49.2159 33.8578 49.2049 33.6105 49.2049 33.3653C49.2049 29.0365 52.7254 25.5159 57.0543 25.5159C61.3831 25.5159 64.9037 29.0365 64.9037 33.3653C64.9037 37.6942 61.3831 41.2147 57.0543 41.2147C56.8025 41.2147 56.5485 41.2037 56.2989 41.1794C56.173 41.1683 56.0472 41.1617 55.9213 41.1617C54.8744 41.1617 53.8628 41.5747 53.1141 42.3212C52.2749 43.1583 51.853 44.3244 51.9634 45.5038C51.9855 45.7468 51.9966 45.9941 51.9966 46.2393C51.9966 50.5682 48.4761 54.0887 44.1472 54.0887Z" fill="#D4FF87"/>
<path d="M44.1472 54.1194C48.4823 54.1194 51.9966 50.6051 51.9966 46.27C51.9966 41.9349 48.4823 38.4206 44.1472 38.4206C39.8121 38.4206 36.2978 41.9349 36.2978 46.27C36.2978 50.6051 39.8121 54.1194 44.1472 54.1194Z" fill="#D4FF87"/>
<path d="M57.0519 41.2147C61.387 41.2147 64.9013 37.7004 64.9013 33.3653C64.9013 29.0302 61.387 25.5159 57.0519 25.5159C52.7168 25.5159 49.2025 29.0302 49.2025 33.3653C49.2025 37.7004 52.7168 41.2147 57.0519 41.2147Z" fill="#D4FF87"/>
<path d="M31.2428 37.9974C33.8043 37.9974 35.8808 35.9208 35.8808 33.3593C35.8808 30.7978 33.8043 28.7212 31.2428 28.7212C28.6812 28.7212 26.6047 30.7978 26.6047 33.3593C26.6047 35.9208 28.6812 37.9974 31.2428 37.9974Z" fill="#D4FF87"/>
<path d="M31.2428 12.2695C33.8043 12.2695 35.8808 10.1929 35.8808 7.6314C35.8808 5.06987 33.8043 2.99333 31.2428 2.99333C28.6812 2.99333 26.6047 5.06987 26.6047 7.6314C26.6047 10.1929 28.6812 12.2695 31.2428 12.2695Z" fill="#D4FF87"/>
<path d="M18.3673 25.1261C20.9289 25.1261 23.0054 23.0496 23.0054 20.488C23.0054 17.9265 20.9289 15.85 18.3673 15.85C15.8058 15.85 13.7293 17.9265 13.7293 20.488C13.7293 23.0496 15.8058 25.1261 18.3673 25.1261Z" fill="#D4FF87"/>
<path d="M44.1098 25.1261C46.6714 25.1261 48.7479 23.0496 48.7479 20.488C48.7479 17.9265 46.6714 15.85 44.1098 15.85C41.5483 15.85 39.4718 17.9265 39.4718 20.488C39.4718 23.0496 41.5483 25.1261 44.1098 25.1261Z" fill="#D4FF87"/>
<path d="M5.63807 37.9974C8.19961 37.9974 10.2761 35.9208 10.2761 33.3593C10.2761 30.7978 8.19961 28.7212 5.63807 28.7212C3.07654 28.7212 1 30.7978 1 33.3593C1 35.9208 3.07654 37.9974 5.63807 37.9974Z" fill="#D4FF87"/>
</svg>
