<svg width="64" height="64" viewBox="0 0 64 64" fill="none" xmlns="http://www.w3.org/2000/svg">
<path d="M30.2388 63.9976C25.91 63.9976 22.3895 60.4771 22.3895 56.1483C22.3895 55.8965 22.4005 55.6425 22.4248 55.3929C22.5374 54.2135 22.1178 53.0474 21.2829 52.2081C20.5342 51.4572 19.5183 51.0398 18.4692 51.0398C18.3477 51.0398 18.224 51.0464 18.1026 51.0574C17.8596 51.0795 17.6122 51.0906 17.3671 51.0906C13.0382 51.0906 9.5177 47.57 9.5177 43.2412C9.5177 38.9123 13.0382 35.3918 17.3671 35.3918C21.696 35.3918 25.2165 38.9123 25.2165 43.2412C25.2165 43.4929 25.2054 43.7469 25.1811 43.9965C25.0685 45.1759 25.4881 46.3421 26.323 47.1813C27.0717 47.9322 28.0877 48.3497 29.1367 48.3497C29.2582 48.3497 29.3819 48.343 29.5034 48.332C29.7463 48.3099 29.9937 48.2989 30.2388 48.2989C34.5677 48.2989 38.0882 51.8194 38.0882 56.1483C38.0882 60.4771 34.5677 63.9976 30.2388 63.9976Z" fill="#D4FF87"/>
<path d="M30.2425 64C25.9136 64 22.3931 60.4795 22.3931 56.1506C22.3931 51.8218 25.9136 48.3012 30.2425 48.3012C30.4943 48.3012 30.7483 48.3123 30.9979 48.3366C31.1237 48.3476 31.2496 48.3542 31.3755 48.3542C32.4224 48.3542 33.4339 47.9412 34.1827 47.1947C35.0219 46.3577 35.4438 45.1915 35.3333 44.0121C35.3113 43.7692 35.3002 43.5218 35.3002 43.2767C35.3002 38.9478 38.8207 35.4273 43.1496 35.4273C47.4785 35.4273 50.999 38.9478 50.999 43.2767C50.999 47.6055 47.4785 51.126 43.1496 51.126C42.8978 51.126 42.6438 51.115 42.3943 51.0907C42.2684 51.0797 42.1425 51.073 42.0166 51.073C40.9697 51.073 39.9582 51.4861 39.2095 52.2326C38.3702 53.0696 37.9483 54.2358 38.0588 55.4152C38.0809 55.6581 38.0919 55.9055 38.0919 56.1506C38.0919 60.4795 34.5714 64 30.2425 64Z" fill="#D4FF87"/>
<path d="M43.1472 51.0953C38.8183 51.0953 35.2978 47.5748 35.2978 43.246C35.2978 38.9171 38.8183 35.3966 43.1472 35.3966C43.399 35.3966 43.6529 35.4076 43.9025 35.4319C44.0284 35.443 44.1543 35.4496 44.2802 35.4496C45.3271 35.4496 46.3386 35.0366 47.0873 34.2901C47.9266 33.453 48.3484 32.2869 48.238 31.1075C48.2159 30.8645 48.2049 30.6172 48.2049 30.372C48.2049 26.0431 51.7254 22.5226 56.0543 22.5226C60.3831 22.5226 63.9037 26.0431 63.9037 30.372C63.9037 34.7009 60.3831 38.2214 56.0543 38.2214C55.8025 38.2214 55.5485 38.2103 55.2989 38.186C55.173 38.175 55.0471 38.1684 54.9212 38.1684C53.8744 38.1684 52.8628 38.5814 52.1141 39.3279C51.2748 40.165 50.853 41.3311 50.9634 42.5105C50.9855 42.7534 50.9966 43.0008 50.9966 43.246C50.9966 47.5748 47.476 51.0953 43.1472 51.0953Z" fill="#D4FF87"/>
<path d="M43.1472 51.126C47.4823 51.126 50.9966 47.6118 50.9966 43.2767C50.9966 38.9416 47.4823 35.4273 43.1472 35.4273C38.8121 35.4273 35.2978 38.9416 35.2978 43.2767C35.2978 47.6118 38.8121 51.126 43.1472 51.126Z" fill="#D4FF87"/>
<path d="M56.0518 38.2214C60.3869 38.2214 63.9012 34.7071 63.9012 30.372C63.9012 26.0369 60.3869 22.5226 56.0518 22.5226C51.7167 22.5226 48.2025 26.0369 48.2025 30.372C48.2025 34.7071 51.7167 38.2214 56.0518 38.2214Z" fill="#D4FF87"/>
<path d="M30.2427 35.004C32.8043 35.004 34.8808 32.9275 34.8808 30.366C34.8808 27.8044 32.8043 25.7279 30.2427 25.7279C27.6812 25.7279 25.6047 27.8044 25.6047 30.366C25.6047 32.9275 27.6812 35.004 30.2427 35.004Z" fill="#D4FF87"/>
<path d="M30.2427 9.27614C32.8043 9.27614 34.8808 7.19961 34.8808 4.63807C34.8808 2.07654 32.8043 0 30.2427 0C27.6812 0 25.6047 2.07654 25.6047 4.63807C25.6047 7.19961 27.6812 9.27614 30.2427 9.27614Z" fill="#D4FF87"/>
<path d="M17.3673 22.1328C19.9289 22.1328 22.0054 20.0562 22.0054 17.4947C22.0054 14.9332 19.9289 12.8566 17.3673 12.8566C14.8058 12.8566 12.7292 14.9332 12.7292 17.4947C12.7292 20.0562 14.8058 22.1328 17.3673 22.1328Z" fill="#D4FF87"/>
<path d="M43.1099 22.1328C45.6714 22.1328 47.7479 20.0562 47.7479 17.4947C47.7479 14.9332 45.6714 12.8566 43.1099 12.8566C40.5483 12.8566 38.4718 14.9332 38.4718 17.4947C38.4718 20.0562 40.5483 22.1328 43.1099 22.1328Z" fill="#D4FF87"/>
<path d="M4.63807 35.004C7.19961 35.004 9.27614 32.9275 9.27614 30.366C9.27614 27.8044 7.19961 25.7279 4.63807 25.7279C2.07654 25.7279 0 27.8044 0 30.366C0 32.9275 2.07654 35.004 4.63807 35.004Z" fill="#D4FF87"/>
</svg>
