<svg width="152" height="26" viewBox="0 0 152 26" fill="none" xmlns="http://www.w3.org/2000/svg">
<path d="M40.4054 7.14703V9.9572H36.3485V21H33.4196V9.9572H29.3824V7.14703H40.4054ZM45.0973 11.0852C45.3942 11.0852 45.7108 11.1446 46.0275 11.204V13.7371C45.691 13.6579 45.3546 13.5986 45.0182 13.5986C43.6724 13.5986 42.584 14.4099 42.584 16.2108V21H39.7936V11.2831H42.584V12.3914C43.1579 11.5602 44.0089 11.0852 45.0973 11.0852ZM53.1109 11.2831H55.9013V21H53.1109V19.7137C52.5172 20.6636 51.6068 21.1979 50.4788 21.1979C47.9853 21.1979 46.4812 19.5158 46.4812 16.7649V11.2831H49.2716V16.4087C49.2716 17.6951 50.0236 18.5263 51.1912 18.5263C52.3391 18.5263 53.1109 17.6951 53.1109 16.4087V11.2831ZM66.4927 15.815C66.4927 16.0327 66.473 16.4879 66.4334 16.8045H59.21C59.4079 18.0711 60.3776 18.8825 61.6838 18.8825C62.7722 18.8825 63.4649 18.4075 63.6232 17.7347H66.3542C66.0376 19.8324 64.1971 21.1979 61.7629 21.1979C58.8934 21.1979 56.6571 18.9616 56.6571 16.0921C56.6571 13.2621 58.8736 11.0852 61.7036 11.0852C64.3356 11.0852 66.4927 13.1434 66.4927 15.815ZM59.3486 15.0234H63.5836C63.5045 14.0339 62.6139 13.3413 61.5848 13.3413C60.5162 13.3413 59.685 13.8756 59.3486 15.0234ZM67.3177 21V7.14703H70.8799L74.9962 16.6858L79.3104 7.14703H82.2987V21H79.3698V12.8663L75.8274 21H73.7099L70.2466 12.8663V21H67.3177ZM92.9711 15.815C92.9711 16.0327 92.9513 16.4879 92.9117 16.8045H85.6884C85.8863 18.0711 86.856 18.8825 88.1621 18.8825C89.2506 18.8825 89.9432 18.4075 90.1015 17.7347H92.8326C92.5159 19.8324 90.6754 21.1979 88.2413 21.1979C85.3717 21.1979 83.1355 18.9616 83.1355 16.0921C83.1355 13.2621 85.3519 11.0852 88.1819 11.0852C90.814 11.0852 92.9711 13.1434 92.9711 15.815ZM85.8269 15.0234H90.062C89.9828 14.0339 89.0923 13.3413 88.0632 13.3413C86.9945 13.3413 86.1633 13.8756 85.8269 15.0234ZM100.805 7.14703H103.595V21H100.805V19.6147C100.132 20.624 99.0828 21.1979 97.7173 21.1979C95.2039 21.1979 93.2052 18.9221 93.2052 16.1317C93.2052 13.3413 95.2039 11.0852 97.7173 11.0852C99.0828 11.0852 100.132 11.6591 100.805 12.6684V7.14703ZM98.3703 18.5263C99.7358 18.5263 100.805 17.4972 100.805 16.1317C100.805 14.786 99.7358 13.7371 98.3703 13.7371C97.0246 13.7371 95.9362 14.8057 95.9362 16.1317C95.9362 17.4774 97.0246 18.5263 98.3703 18.5263ZM106.139 6.57312C107.069 6.57312 107.841 7.34493 107.841 8.25527C107.841 9.1854 107.069 9.9572 106.139 9.9572C105.209 9.9572 104.437 9.1854 104.437 8.25527C104.437 7.34493 105.209 6.57312 106.139 6.57312ZM104.753 11.2831H107.544V21H104.753V11.2831ZM115.919 11.2831H118.709V21H115.919V19.6147C115.246 20.624 114.197 21.1979 112.832 21.1979C110.319 21.1979 108.32 18.9221 108.32 16.1317C108.32 13.3413 110.319 11.0852 112.832 11.0852C114.197 11.0852 115.246 11.6591 115.919 12.6684V11.2831ZM113.485 18.5263C114.85 18.5263 115.919 17.4972 115.919 16.1317C115.919 14.786 114.85 13.7371 113.485 13.7371C112.139 13.7371 111.051 14.8057 111.051 16.1317C111.051 17.4774 112.139 18.5263 113.485 18.5263ZM121.689 21.1979C120.679 21.1979 119.888 20.4063 119.888 19.4168C119.888 18.4273 120.679 17.6555 121.689 17.6555C122.718 17.6555 123.509 18.4273 123.509 19.4168C123.509 20.4063 122.718 21.1979 121.689 21.1979ZM129.157 11.0852C132.007 11.0852 134.204 13.2621 134.204 16.1515C134.204 19.0408 132.007 21.1979 129.157 21.1979C126.288 21.1979 124.111 19.0408 124.111 16.1515C124.111 13.2621 126.288 11.0852 129.157 11.0852ZM129.157 13.7569C127.831 13.7569 126.842 14.7662 126.842 16.1515C126.842 17.4972 127.831 18.5263 129.157 18.5263C130.463 18.5263 131.473 17.4972 131.473 16.1515C131.473 14.7662 130.463 13.7569 129.157 13.7569ZM140.286 11.0852C140.583 11.0852 140.9 11.1446 141.216 11.204V13.7371C140.88 13.6579 140.544 13.5986 140.207 13.5986C138.861 13.5986 137.773 14.4099 137.773 16.2108V21H134.983V11.2831H137.773V12.3914C138.347 11.5602 139.198 11.0852 140.286 11.0852ZM148.235 11.2633H151.026V20.5844C151.026 23.3352 148.809 24.9976 145.999 24.9976C144.198 24.9976 141.111 24.3445 140.933 21.376H143.723C143.803 22.2468 144.792 22.6821 145.9 22.6821C147.107 22.6821 148.235 21.8905 148.235 20.7032V19.2981C147.563 20.2876 146.514 20.8219 145.148 20.8219C142.635 20.8219 140.636 18.6252 140.636 15.9536C140.636 13.2621 142.635 11.0852 145.148 11.0852C146.514 11.0852 147.563 11.6196 148.235 12.6091V11.2633ZM145.801 18.2492C147.167 18.2492 148.235 17.2597 148.235 15.9536C148.235 14.6474 147.167 13.6381 145.801 13.6381C144.456 13.6381 143.367 14.6672 143.367 15.9536C143.367 17.2399 144.456 18.2492 145.801 18.2492Z" fill="white"/>
<path d="M11.3395 25.0006C9.71619 25.0006 8.396 23.6804 8.396 22.0571C8.396 21.9627 8.40014 21.8674 8.40925 21.7738C8.45149 21.3315 8.29413 20.8942 7.98106 20.5795C7.70029 20.2979 7.3193 20.1414 6.9259 20.1414C6.88034 20.1414 6.83396 20.1439 6.78841 20.148C6.69731 20.1563 6.60454 20.1604 6.51261 20.1604C4.88929 20.1604 3.56909 18.8402 3.56909 17.2169C3.56909 15.5936 4.88929 14.2734 6.51261 14.2734C8.13594 14.2734 9.45613 15.5936 9.45613 17.2169C9.45613 17.3113 9.45199 17.4066 9.44288 17.5002C9.40064 17.9424 9.558 18.3797 9.87107 18.6945C10.1518 18.9761 10.5328 19.1326 10.9262 19.1326C10.9718 19.1326 11.0182 19.1301 11.0637 19.126C11.1548 19.1177 11.2476 19.1136 11.3395 19.1136C12.9628 19.1136 14.283 20.4337 14.283 22.0571C14.283 23.6804 12.9628 25.0006 11.3395 25.0006Z" fill="#D4FF87"/>
<path d="M11.341 25.0015C9.71765 25.0015 8.39746 23.6813 8.39746 22.058C8.39746 20.4346 9.71765 19.1144 11.341 19.1144C11.4354 19.1144 11.5306 19.1186 11.6242 19.1277C11.6714 19.1318 11.7187 19.1343 11.7659 19.1343C12.1584 19.1343 12.5378 18.9794 12.8185 18.6995C13.1333 18.3856 13.2915 17.9483 13.25 17.506C13.2418 17.4149 13.2376 17.3222 13.2376 17.2302C13.2376 15.6069 14.5578 14.2867 16.1811 14.2867C17.8045 14.2867 19.1247 15.6069 19.1247 17.2302C19.1247 18.8536 17.8045 20.1738 16.1811 20.1738C16.0867 20.1738 15.9915 20.1696 15.8979 20.1605C15.8507 20.1564 15.8035 20.1539 15.7563 20.1539C15.3637 20.1539 14.9844 20.3088 14.7036 20.5887C14.3889 20.9026 14.2307 21.3399 14.2721 21.7822C14.2804 21.8733 14.2845 21.966 14.2845 22.058C14.2845 23.6813 12.9643 25.0015 11.341 25.0015Z" fill="#D4FF87"/>
<path d="M16.1802 20.1622C14.5569 20.1622 13.2367 18.842 13.2367 17.2187C13.2367 15.5954 14.5569 14.2752 16.1802 14.2752C16.2746 14.2752 16.3699 14.2793 16.4635 14.2885C16.5107 14.2926 16.5579 14.2951 16.6051 14.2951C16.9977 14.2951 17.377 14.1402 17.6578 13.8603C17.9725 13.5464 18.1307 13.1091 18.0893 12.6668C18.081 12.5757 18.0769 12.4829 18.0769 12.391C18.0769 10.7677 19.397 9.44746 21.0204 9.44746C22.6437 9.44746 23.9639 10.7677 23.9639 12.391C23.9639 14.0143 22.6437 15.3345 21.0204 15.3345C20.926 15.3345 20.8307 15.3304 20.7371 15.3213C20.6899 15.3171 20.6427 15.3146 20.5955 15.3146C20.2029 15.3146 19.8236 15.4695 19.5428 15.7494C19.2281 16.0633 19.0699 16.5006 19.1113 16.9429C19.1196 17.034 19.1237 17.1268 19.1237 17.2187C19.1237 18.842 17.8035 20.1622 16.1802 20.1622Z" fill="#D4FF87"/>
<path d="M16.1802 20.1738C17.8059 20.1738 19.1237 18.8559 19.1237 17.2302C19.1237 15.6046 17.8059 14.2867 16.1802 14.2867C14.5546 14.2867 13.2367 15.6046 13.2367 17.2302C13.2367 18.8559 14.5546 20.1738 16.1802 20.1738Z" fill="#D4FF87"/>
<path d="M21.0194 15.3345C22.6451 15.3345 23.963 14.0166 23.963 12.391C23.963 10.7653 22.6451 9.44746 21.0194 9.44746C19.3938 9.44746 18.0759 10.7653 18.0759 12.391C18.0759 14.0166 19.3938 15.3345 21.0194 15.3345Z" fill="#D4FF87"/>
<path d="M11.3411 14.128C12.3017 14.128 13.0804 13.3493 13.0804 12.3887C13.0804 11.4281 12.3017 10.6494 11.3411 10.6494C10.3805 10.6494 9.60181 11.4281 9.60181 12.3887C9.60181 13.3493 10.3805 14.128 11.3411 14.128Z" fill="#D4FF87"/>
<path d="M11.3411 4.48003C12.3017 4.48003 13.0804 3.70133 13.0804 2.74076C13.0804 1.78018 12.3017 1.00148 11.3411 1.00148C10.3805 1.00148 9.60181 1.78018 9.60181 2.74076C9.60181 3.70133 10.3805 4.48003 11.3411 4.48003Z" fill="#D4FF87"/>
<path d="M6.51271 9.30128C7.47329 9.30128 8.25199 8.52258 8.25199 7.562C8.25199 6.60142 7.47329 5.82272 6.51271 5.82272C5.55214 5.82272 4.77344 6.60142 4.77344 7.562C4.77344 8.52258 5.55214 9.30128 6.51271 9.30128Z" fill="#D4FF87"/>
<path d="M16.1662 9.30128C17.1267 9.30128 17.9054 8.52258 17.9054 7.562C17.9054 6.60142 17.1267 5.82272 16.1662 5.82272C15.2056 5.82272 14.4269 6.60142 14.4269 7.562C14.4269 8.52258 15.2056 9.30128 16.1662 9.30128Z" fill="#D4FF87"/>
<path d="M1.73928 14.128C2.69985 14.128 3.47855 13.3493 3.47855 12.3887C3.47855 11.4281 2.69985 10.6494 1.73928 10.6494C0.778701 10.6494 0 11.4281 0 12.3887C0 13.3493 0.778701 14.128 1.73928 14.128Z" fill="#D4FF87"/>
</svg>
