<svg width="594" height="101" viewBox="0 0 594 101" fill="none" xmlns="http://www.w3.org/2000/svg">
<path d="M157.9 25.8641V36.8459H142.046V80H130.6V36.8459H114.823V25.8641H157.9ZM176.236 41.2541C177.396 41.2541 178.633 41.4862 179.87 41.7182V51.6173C178.556 51.308 177.241 51.076 175.926 51.076C170.667 51.076 166.414 54.2468 166.414 61.2844V80H155.509V42.0275H166.414V46.3584C168.657 43.1102 171.982 41.2541 176.236 41.2541ZM207.552 42.0275H218.456V80H207.552V74.9731C205.232 78.6853 201.674 80.7734 197.266 80.7734C187.521 80.7734 181.644 74.1997 181.644 63.4499V42.0275H192.548V62.0578C192.548 67.0847 195.487 70.3329 200.05 70.3329C204.536 70.3329 207.552 67.0847 207.552 62.0578V42.0275ZM259.847 59.7377C259.847 60.5884 259.769 62.3672 259.615 63.6046H231.387C232.16 68.5541 235.949 71.7249 241.054 71.7249C245.307 71.7249 248.014 69.8689 248.633 67.2394H259.305C258.068 75.4371 250.876 80.7734 241.363 80.7734C230.149 80.7734 221.41 72.0343 221.41 60.8204C221.41 49.7612 230.072 41.2541 241.131 41.2541C251.417 41.2541 259.847 49.2972 259.847 59.7377ZM231.928 56.6442H248.478C248.169 52.7774 244.689 50.0706 240.667 50.0706C236.491 50.0706 233.243 52.1587 231.928 56.6442ZM263.071 80V25.8641H276.991L293.077 63.1405L309.937 25.8641H321.615V80H310.169V48.2145L296.326 80H288.05L274.516 48.2145V80H263.071ZM363.321 59.7377C363.321 60.5884 363.244 62.3672 363.089 63.6046H334.861C335.635 68.5541 339.424 71.7249 344.528 71.7249C348.782 71.7249 351.489 69.8689 352.107 67.2394H362.78C361.542 75.4371 354.35 80.7734 344.838 80.7734C333.624 80.7734 324.885 72.0343 324.885 60.8204C324.885 49.7612 333.546 41.2541 344.606 41.2541C354.891 41.2541 363.321 49.2972 363.321 59.7377ZM335.403 56.6442H351.953C351.643 52.7774 348.163 50.0706 344.142 50.0706C339.965 50.0706 336.717 52.1587 335.403 56.6442ZM393.933 25.8641H404.838V80H393.933V74.5864C391.304 78.5306 387.205 80.7734 381.869 80.7734C372.047 80.7734 364.236 71.8796 364.236 60.9751C364.236 50.0706 372.047 41.2541 381.869 41.2541C387.205 41.2541 391.304 43.4969 393.933 47.4411V25.8641ZM384.421 70.3329C389.757 70.3329 393.933 66.3114 393.933 60.9751C393.933 55.7162 389.757 51.6173 384.421 51.6173C379.162 51.6173 374.908 55.7935 374.908 60.9751C374.908 66.234 379.162 70.3329 384.421 70.3329ZM414.779 23.6213C418.414 23.6213 421.43 26.6374 421.43 30.1949C421.43 33.8298 418.414 36.8459 414.779 36.8459C411.144 36.8459 408.128 33.8298 408.128 30.1949C408.128 26.6374 411.144 23.6213 414.779 23.6213ZM409.365 42.0275H420.27V80H409.365V42.0275ZM453 42.0275H463.904V80H453V74.5864C450.37 78.5306 446.271 80.7734 440.935 80.7734C431.113 80.7734 423.302 71.8796 423.302 60.9751C423.302 50.0706 431.113 41.2541 440.935 41.2541C446.271 41.2541 450.37 43.4969 453 47.4411V42.0275ZM443.487 70.3329C448.823 70.3329 453 66.3114 453 60.9751C453 55.7162 448.823 51.6173 443.487 51.6173C438.228 51.6173 433.975 55.7935 433.975 60.9751C433.975 66.234 438.228 70.3329 443.487 70.3329ZM475.546 80.7734C471.602 80.7734 468.509 77.6799 468.509 73.813C468.509 69.9462 471.602 66.93 475.546 66.93C479.568 66.93 482.661 69.9462 482.661 73.813C482.661 77.6799 479.568 80.7734 475.546 80.7734ZM504.733 41.2541C515.869 41.2541 524.454 49.7612 524.454 61.0524C524.454 72.3436 515.869 80.7734 504.733 80.7734C493.519 80.7734 485.012 72.3436 485.012 61.0524C485.012 49.7612 493.519 41.2541 504.733 41.2541ZM504.733 51.6946C499.551 51.6946 495.684 55.6388 495.684 61.0524C495.684 66.3114 499.551 70.3329 504.733 70.3329C509.837 70.3329 513.781 66.3114 513.781 61.0524C513.781 55.6388 509.837 51.6946 504.733 51.6946ZM548.224 41.2541C549.384 41.2541 550.621 41.4862 551.859 41.7182V51.6173C550.544 51.308 549.229 51.076 547.914 51.076C542.656 51.076 538.402 54.2468 538.402 61.2844V80H527.497V42.0275H538.402V46.3584C540.645 43.1102 543.97 41.2541 548.224 41.2541ZM579.289 41.9502H590.193V78.3759C590.193 89.1258 581.531 95.6221 570.549 95.6221C563.512 95.6221 551.447 93.07 550.751 81.4694H561.656C561.965 84.8723 565.832 86.5737 570.163 86.5737C574.88 86.5737 579.289 83.4802 579.289 78.84V73.349C576.659 77.2159 572.56 79.304 567.224 79.304C557.402 79.304 549.591 70.7196 549.591 60.2791C549.591 49.7612 557.402 41.2541 567.224 41.2541C572.56 41.2541 576.659 43.3422 579.289 47.2091V41.9502ZM569.776 69.2502C575.112 69.2502 579.289 65.3833 579.289 60.2791C579.289 55.1748 575.112 51.2306 569.776 51.2306C564.517 51.2306 560.264 55.2522 560.264 60.2791C560.264 65.306 564.517 69.2502 569.776 69.2502Z" fill="white"/>
<path d="M47.4267 100.978C40.9236 100.978 35.6348 95.6976 35.6348 89.2043C35.6348 88.8267 35.6514 88.4457 35.6879 88.0713C35.8571 86.3022 35.2267 84.553 33.9726 83.2941C32.8478 82.1677 31.3216 81.5416 29.7456 81.5416C29.5631 81.5416 29.3773 81.5515 29.1948 81.5681C28.8298 81.6012 28.4582 81.6178 28.0899 81.6178C21.5868 81.6178 16.2981 76.337 16.2981 69.8437C16.2981 63.3504 21.5868 58.0696 28.0899 58.0696C34.593 58.0696 39.8817 63.3504 39.8817 69.8437C39.8817 70.2214 39.8652 70.6024 39.8287 70.9767C39.6594 72.7458 40.2898 74.495 41.544 75.7539C42.6688 76.8803 44.195 77.5065 45.771 77.5065C45.9535 77.5065 46.1393 77.4965 46.3218 77.48C46.6868 77.4468 47.0584 77.4303 47.4267 77.4303C53.9297 77.4303 59.2185 82.711 59.2185 89.2043C59.2185 95.6976 53.9297 100.978 47.4267 100.978Z" fill="#D4FF87"/>
<path d="M47.4322 100.982C40.9291 100.982 35.6404 95.7012 35.6404 89.2079C35.6404 82.7146 40.9291 77.4338 47.4322 77.4338C47.8104 77.4338 48.192 77.4504 48.5669 77.4868C48.756 77.5034 48.9451 77.5133 49.1343 77.5133C50.7069 77.5133 52.2265 76.8938 53.3513 75.7741C54.6121 74.5185 55.2458 72.7693 55.0799 71.0002C55.0468 70.6357 55.0302 70.2647 55.0302 69.897C55.0302 63.4037 60.3189 58.1229 66.822 58.1229C73.3251 58.1229 78.6138 63.4037 78.6138 69.897C78.6138 76.3903 73.3251 81.671 66.822 81.671C66.4437 81.671 66.0622 81.6545 65.6873 81.618C65.4981 81.6015 65.309 81.5915 65.1199 81.5915C63.5472 81.5915 62.0276 82.211 60.9029 83.3308C59.6421 84.5864 59.0083 86.3356 59.1742 88.1047C59.2074 88.4691 59.224 88.8402 59.224 89.2079C59.224 95.7012 53.9353 100.982 47.4322 100.982Z" fill="#D4FF87"/>
<path d="M66.8183 81.625C60.3153 81.625 55.0265 76.3442 55.0265 69.8509C55.0265 63.3576 60.3153 58.0768 66.8183 58.0768C67.1966 58.0768 67.5781 58.0934 67.9531 58.1298C68.1422 58.1464 68.3313 58.1563 68.5204 58.1563C70.0931 58.1563 71.6127 57.5368 72.7375 56.4171C73.9983 55.1615 74.632 53.4123 74.4661 51.6432C74.4329 51.2787 74.4163 50.9077 74.4163 50.54C74.4163 44.0467 79.7051 38.7659 86.2082 38.7659C92.7112 38.7659 98 44.0467 98 50.54C98 57.0333 92.7112 62.314 86.2082 62.314C85.8299 62.314 85.4484 62.2975 85.0734 62.261C84.8843 62.2445 84.6952 62.2345 84.5061 62.2345C82.9334 62.2345 81.4138 62.854 80.289 63.9738C79.0282 65.2294 78.3945 66.9786 78.5604 68.7477C78.5936 69.1121 78.6102 69.4832 78.6102 69.8509C78.6102 76.3442 73.3214 81.625 66.8183 81.625Z" fill="#D4FF87"/>
<path d="M66.8183 81.671C73.3308 81.671 78.6102 76.3996 78.6102 69.897C78.6102 63.3943 73.3308 58.1229 66.8183 58.1229C60.3059 58.1229 55.0265 63.3943 55.0265 69.897C55.0265 76.3996 60.3059 81.671 66.8183 81.671Z" fill="#D4FF87"/>
<path d="M86.2045 62.314C92.717 62.314 97.9963 57.0426 97.9963 50.54C97.9963 44.0373 92.717 38.7659 86.2045 38.7659C79.6921 38.7659 74.4127 44.0373 74.4127 50.54C74.4127 57.0426 79.6921 62.314 86.2045 62.314Z" fill="#D4FF87"/>
<path d="M47.4325 57.488C51.2806 57.488 54.4001 54.3732 54.4001 50.5309C54.4001 46.6886 51.2806 43.5738 47.4325 43.5738C43.5844 43.5738 40.4649 46.6886 40.4649 50.5309C40.4649 54.3732 43.5844 57.488 47.4325 57.488Z" fill="#D4FF87"/>
<path d="M47.4325 18.8962C51.2806 18.8962 54.4001 15.7814 54.4001 11.9391C54.4001 8.09677 51.2806 4.98196 47.4325 4.98196C43.5844 4.98196 40.4649 8.09677 40.4649 11.9391C40.4649 15.7814 43.5844 18.8962 47.4325 18.8962Z" fill="#D4FF87"/>
<path d="M28.0903 38.1811C31.9384 38.1811 35.0579 35.0663 35.0579 31.224C35.0579 27.3817 31.9384 24.2669 28.0903 24.2669C24.2422 24.2669 21.1227 27.3817 21.1227 31.224C21.1227 35.0663 24.2422 38.1811 28.0903 38.1811Z" fill="#D4FF87"/>
<path d="M66.7622 38.1811C70.6103 38.1811 73.7298 35.0663 73.7298 31.224C73.7298 27.3817 70.6103 24.2669 66.7622 24.2669C62.9141 24.2669 59.7946 27.3817 59.7946 31.224C59.7946 35.0663 62.9141 38.1811 66.7622 38.1811Z" fill="#D4FF87"/>
<path d="M8.96759 57.488C12.8157 57.488 15.9352 54.3732 15.9352 50.5309C15.9352 46.6886 12.8157 43.5738 8.96759 43.5738C5.1195 43.5738 2 46.6886 2 50.5309C2 54.3732 5.1195 57.488 8.96759 57.488Z" fill="#D4FF87"/>
</svg>
