<svg width="303" height="52" viewBox="0 0 303 52" fill="none" xmlns="http://www.w3.org/2000/svg">
<path d="M80.545 13.3852V18.9871H72.4578V41H66.6192V18.9871H58.5715V13.3852H80.545ZM89.898 21.2357C90.4897 21.2357 91.1209 21.3541 91.7521 21.4724V26.522C91.0815 26.3642 90.4108 26.2458 89.7402 26.2458C87.0576 26.2458 84.8879 27.8633 84.8879 31.4532V41H79.3254V21.6302H84.8879V23.8394C86.0319 22.1825 87.7282 21.2357 89.898 21.2357ZM105.872 21.6302H111.435V41H105.872V38.4358C104.689 40.3294 102.874 41.3945 100.626 41.3945C95.6549 41.3945 92.6567 38.0413 92.6567 32.5578V21.6302H98.2191V31.8477C98.2191 34.4119 99.7182 36.0688 102.046 36.0688C104.334 36.0688 105.872 34.4119 105.872 31.8477V21.6302ZM132.548 30.6642C132.548 31.0981 132.509 32.0055 132.43 32.6367H118.031C118.425 35.1615 120.358 36.7789 122.962 36.7789C125.131 36.7789 126.512 35.8321 126.828 34.4908H132.272C131.641 38.6725 127.972 41.3945 123.12 41.3945C117.399 41.3945 112.942 36.9367 112.942 31.2165C112.942 25.5752 117.36 21.2357 123.001 21.2357C128.248 21.2357 132.548 25.3385 132.548 30.6642ZM118.307 29.0862H126.749C126.591 27.1137 124.816 25.733 122.765 25.733C120.634 25.733 118.977 26.7981 118.307 29.0862ZM134.193 41V13.3852H141.294L149.499 32.4L158.099 13.3852H164.056V41H158.217V24.7862L151.156 41H146.935L140.031 24.7862V41H134.193ZM185.331 30.6642C185.331 31.0981 185.291 32.0055 185.212 32.6367H170.813C171.208 35.1615 173.141 36.7789 175.744 36.7789C177.914 36.7789 179.295 35.8321 179.61 34.4908H185.054C184.423 38.6725 180.754 41.3945 175.902 41.3945C170.182 41.3945 165.724 36.9367 165.724 31.2165C165.724 25.5752 170.142 21.2357 175.784 21.2357C181.031 21.2357 185.331 25.3385 185.331 30.6642ZM171.089 29.0862H179.531C179.374 27.1137 177.598 25.733 175.547 25.733C173.417 25.733 171.76 26.7981 171.089 29.0862ZM200.946 13.3852H206.508V41H200.946V38.2385C199.605 40.2505 197.514 41.3945 194.792 41.3945C189.782 41.3945 185.797 36.8578 185.797 31.2954C185.797 25.733 189.782 21.2357 194.792 21.2357C197.514 21.2357 199.605 22.3797 200.946 24.3917V13.3852ZM196.094 36.0688C198.816 36.0688 200.946 34.0174 200.946 31.2954C200.946 28.6128 198.816 26.522 196.094 26.522C193.411 26.522 191.241 28.6523 191.241 31.2954C191.241 33.978 193.411 36.0688 196.094 36.0688ZM211.579 12.2412C213.433 12.2412 214.972 13.7797 214.972 15.5944C214.972 17.4485 213.433 18.9871 211.579 18.9871C209.725 18.9871 208.186 17.4485 208.186 15.5944C208.186 13.7797 209.725 12.2412 211.579 12.2412ZM208.818 21.6302H214.38V41H208.818V21.6302ZM231.076 21.6302H236.638V41H231.076V38.2385C229.734 40.2505 227.643 41.3945 224.921 41.3945C219.911 41.3945 215.927 36.8578 215.927 31.2954C215.927 25.733 219.911 21.2357 224.921 21.2357C227.643 21.2357 229.734 22.3797 231.076 24.3917V21.6302ZM226.223 36.0688C228.945 36.0688 231.076 34.0174 231.076 31.2954C231.076 28.6128 228.945 26.522 226.223 26.522C223.541 26.522 221.371 28.6523 221.371 31.2954C221.371 33.978 223.541 36.0688 226.223 36.0688ZM242.577 41.3945C240.565 41.3945 238.987 39.8165 238.987 37.844C238.987 35.8716 240.565 34.333 242.577 34.333C244.628 34.333 246.206 35.8716 246.206 37.844C246.206 39.8165 244.628 41.3945 242.577 41.3945ZM257.465 21.2357C263.145 21.2357 267.524 25.5752 267.524 31.3348C267.524 37.0945 263.145 41.3945 257.465 41.3945C251.744 41.3945 247.405 37.0945 247.405 31.3348C247.405 25.5752 251.744 21.2357 257.465 21.2357ZM257.465 26.5614C254.822 26.5614 252.849 28.5734 252.849 31.3348C252.849 34.0174 254.822 36.0688 257.465 36.0688C260.068 36.0688 262.08 34.0174 262.08 31.3348C262.08 28.5734 260.068 26.5614 257.465 26.5614ZM279.65 21.2357C280.241 21.2357 280.873 21.3541 281.504 21.4724V26.522C280.833 26.3642 280.162 26.2458 279.492 26.2458C276.809 26.2458 274.639 27.8633 274.639 31.4532V41H269.077V21.6302H274.639V23.8394C275.783 22.1825 277.48 21.2357 279.65 21.2357ZM295.496 21.5908H301.058V40.1716C301.058 45.6551 296.64 48.9689 291.038 48.9689C287.448 48.9689 281.294 47.667 280.939 41.7496H286.501C286.659 43.4853 288.631 44.3532 290.841 44.3532C293.247 44.3532 295.496 42.7753 295.496 40.4083V37.6073C294.154 39.5798 292.064 40.645 289.342 40.645C284.331 40.645 280.347 36.266 280.347 30.9403C280.347 25.5752 284.331 21.2357 289.342 21.2357C292.064 21.2357 294.154 22.3008 295.496 24.2733V21.5908ZM290.643 35.5165C293.365 35.5165 295.496 33.544 295.496 30.9403C295.496 28.3367 293.365 26.3247 290.643 26.3247C287.961 26.3247 285.791 28.3761 285.791 30.9403C285.791 33.5046 287.961 35.5165 290.643 35.5165Z" fill="white"/>
<path d="M23.6792 51.0126C20.4325 51.0126 17.7921 48.3722 17.7921 45.1256C17.7921 44.9367 17.8004 44.7462 17.8186 44.5591C17.9031 43.6745 17.5884 42.7999 16.9622 42.1705C16.4007 41.6073 15.6387 41.2942 14.8519 41.2942C14.7608 41.2942 14.668 41.2992 14.5769 41.3074C14.3947 41.324 14.2092 41.3323 14.0253 41.3323C10.7787 41.3323 8.13831 38.6919 8.13831 35.4452C8.13831 32.1986 10.7787 29.5582 14.0253 29.5582C17.272 29.5582 19.9124 32.1986 19.9124 35.4452C19.9124 35.6341 19.9041 35.8246 19.8859 36.0118C19.8014 36.8963 20.1161 37.7709 20.7423 38.4004C21.3038 38.9636 22.0658 39.2766 22.8526 39.2766C22.9437 39.2766 23.0365 39.2717 23.1276 39.2634C23.3098 39.2468 23.4953 39.2385 23.6792 39.2385C26.9258 39.2385 29.5662 41.8789 29.5662 45.1256C29.5662 48.3722 26.9258 51.0126 23.6792 51.0126Z" fill="#D4FF87"/>
<path d="M23.6819 51.0144C20.4352 51.0144 17.7949 48.374 17.7949 45.1273C17.7949 41.8807 20.4352 39.2403 23.6819 39.2403C23.8707 39.2403 24.0612 39.2486 24.2484 39.2668C24.3428 39.2751 24.4372 39.28 24.5317 39.28C25.3168 39.28 26.0755 38.9703 26.637 38.4104C27.2665 37.7826 27.5828 36.908 27.5 36.0235C27.4835 35.8413 27.4752 35.6557 27.4752 35.4719C27.4752 32.2252 30.1156 29.5848 33.3622 29.5848C36.6089 29.5848 39.2493 32.2252 39.2493 35.4719C39.2493 38.7185 36.6089 41.3589 33.3622 41.3589C33.1734 41.3589 32.9829 41.3506 32.7957 41.3324C32.7013 41.3241 32.6069 41.3191 32.5125 41.3191C31.7273 41.3191 30.9686 41.6289 30.4071 42.1888C29.7777 42.8166 29.4613 43.6912 29.5441 44.5757C29.5607 44.7579 29.5689 44.9435 29.5689 45.1273C29.5689 48.374 26.9285 51.0144 23.6819 51.0144Z" fill="#D4FF87"/>
<path d="M33.3604 41.3359C30.1138 41.3359 27.4734 38.6955 27.4734 35.4488C27.4734 32.2022 30.1138 29.5618 33.3604 29.5618C33.5493 29.5618 33.7398 29.5701 33.9269 29.5883C34.0214 29.5966 34.1158 29.6016 34.2102 29.6016C34.9953 29.6016 35.754 29.2918 36.3155 28.7319C36.945 28.1041 37.2614 27.2295 37.1786 26.345C37.162 26.1628 37.1537 25.9772 37.1537 25.7934C37.1537 22.5467 39.7941 19.9063 43.0407 19.9063C46.2874 19.9063 48.9278 22.5467 48.9278 25.7934C48.9278 29.04 46.2874 31.6804 43.0407 31.6804C42.8519 31.6804 42.6614 31.6721 42.4742 31.6539C42.3798 31.6456 42.2854 31.6406 42.191 31.6406C41.4058 31.6406 40.6472 31.9504 40.0856 32.5103C39.4562 33.1381 39.1398 34.0127 39.2226 34.8972C39.2392 35.0794 39.2475 35.265 39.2475 35.4488C39.2475 38.6955 36.6071 41.3359 33.3604 41.3359Z" fill="#D4FF87"/>
<path d="M33.3604 41.3589C36.6117 41.3589 39.2475 38.7232 39.2475 35.4719C39.2475 32.2205 36.6117 29.5848 33.3604 29.5848C30.1091 29.5848 27.4734 32.2205 27.4734 35.4719C27.4734 38.7232 30.1091 41.3589 33.3604 41.3589Z" fill="#D4FF87"/>
<path d="M43.0389 31.6804C46.2902 31.6804 48.9259 29.0447 48.9259 25.7934C48.9259 22.542 46.2902 19.9063 43.0389 19.9063C39.7876 19.9063 37.1519 22.542 37.1519 25.7934C37.1519 29.0447 39.7876 31.6804 43.0389 31.6804Z" fill="#D4FF87"/>
<path d="M23.682 29.2674C25.6032 29.2674 27.1606 27.71 27.1606 25.7889C27.1606 23.8677 25.6032 22.3103 23.682 22.3103C21.7609 22.3103 20.2035 23.8677 20.2035 25.7889C20.2035 27.71 21.7609 29.2674 23.682 29.2674Z" fill="#D4FF87"/>
<path d="M23.682 9.97148C25.6032 9.97148 27.1606 8.41408 27.1606 6.49293C27.1606 4.57178 25.6032 3.01437 23.682 3.01437C21.7609 3.01437 20.2035 4.57178 20.2035 6.49293C20.2035 8.41408 21.7609 9.97148 23.682 9.97148Z" fill="#D4FF87"/>
<path d="M14.0255 19.614C15.9466 19.614 17.504 18.0566 17.504 16.1354C17.504 14.2143 15.9466 12.6569 14.0255 12.6569C12.1043 12.6569 10.5469 14.2143 10.5469 16.1354C10.5469 18.0566 12.1043 19.614 14.0255 19.614Z" fill="#D4FF87"/>
<path d="M33.3324 19.614C35.2535 19.614 36.8109 18.0566 36.8109 16.1354C36.8109 14.2143 35.2535 12.6569 33.3324 12.6569C31.4112 12.6569 29.8538 14.2143 29.8538 16.1354C29.8538 18.0566 31.4112 19.614 33.3324 19.614Z" fill="#D4FF87"/>
<path d="M4.47855 29.2674C6.39971 29.2674 7.95711 27.71 7.95711 25.7889C7.95711 23.8677 6.39971 22.3103 4.47855 22.3103C2.5574 22.3103 1 23.8677 1 25.7889C1 27.71 2.5574 29.2674 4.47855 29.2674Z" fill="#D4FF87"/>
</svg>
